<?xml version="1.0" encoding="utf-8"?>
<!-- Generator: Adobe Illustrator 23.0.5, SVG Export Plug-In . SVG Version: 6.00 Build 0)  -->
<!DOCTYPE svg PUBLIC "-//W3C//DTD SVG 1.1//EN" "http://www.w3.org/Graphics/SVG/1.1/DTD/svg11.dtd" [
	<!ENTITY ns_extend "http://ns.adobe.com/Extensibility/1.0/">
	<!ENTITY ns_ai "http://ns.adobe.com/AdobeIllustrator/10.0/">
	<!ENTITY ns_graphs "http://ns.adobe.com/Graphs/1.0/">
	<!ENTITY ns_vars "http://ns.adobe.com/Variables/1.0/">
	<!ENTITY ns_imrep "http://ns.adobe.com/ImageReplacement/1.0/">
	<!ENTITY ns_sfw "http://ns.adobe.com/SaveForWeb/1.0/">
	<!ENTITY ns_custom "http://ns.adobe.com/GenericCustomNamespace/1.0/">
	<!ENTITY ns_adobe_xpath "http://ns.adobe.com/XPath/1.0/">
]>
<svg version="1.1" id="Layer_1" xmlns:x="&ns_extend;" xmlns:i="&ns_ai;" xmlns:graph="&ns_graphs;"
	 xmlns="http://www.w3.org/2000/svg" xmlns:xlink="http://www.w3.org/1999/xlink" x="0px" y="0px" viewBox="0 0 512 512"
	 enable-background="new 0 0 512 512" xml:space="preserve">
<metadata>
	<sfw  xmlns="&ns_sfw;">
		<slices></slices>
		<sliceSourceBounds  bottomLeftOrigin="true" height="473.5" width="389" x="62" y="-492.5"></sliceSourceBounds>
	</sfw>
</metadata>
<path fill="none" stroke="#000000" stroke-width="12" stroke-miterlimit="10" d="M426,110.5H86c-9.9,0-18-8.1-18-18V43
	c0-9.9,8.1-18,18-18h340c9.9,0,18,8.1,18,18v49.5C444,102.4,435.9,110.5,426,110.5z"/>
<g>
	<path fill="#282D33" d="M127.6,70.3l-0.8-1.2c-0.5,0.3-0.8,0.8-0.7,1.4c0.1,0.6,0.5,1,1,1.2L127.6,70.3z M113.9,70.3l0.4,1.4
		c0.6-0.2,1-0.6,1-1.2c0.1-0.6-0.2-1.1-0.7-1.4L113.9,70.3z M97.5,89.3L96,89.1L97.5,89.3z M144,89.3l1.5-0.2L144,89.3z M132.4,59.3
		c0,4.1-2.3,7.8-5.6,9.8l1.5,2.4c4.2-2.5,7-7,7-12.2H132.4z M132.4,59.3h2.9c0-7.9-6.6-14.3-14.6-14.3v2.9
		C127.2,47.9,132.4,53,132.4,59.3z M109,59.3c0-6.3,5.2-11.4,11.7-11.4V45c-8.1,0-14.6,6.4-14.6,14.3H109z M114.6,69
		c-3.4-2-5.6-5.6-5.6-9.8h-2.9c0,5.2,2.8,9.7,7,12.2L114.6,69z M113.4,68.9c-9.2,2.7-16.2,10.6-17.4,20.2l2.9,0.4
		c1.1-8.4,7.2-15.4,15.4-17.8L113.4,68.9z M96,89.1c-0.3,2.5,1.8,4.4,4.2,4.4v-2.9c-0.9,0-1.4-0.7-1.3-1.2L96,89.1z M100.1,93.5h41
		v-2.8h-41V93.5z M141.2,93.5c2.4,0,4.5-1.9,4.2-4.4l-2.9,0.4c0.1,0.6-0.4,1.2-1.3,1.2V93.5z M145.4,89.1
		c-1.2-9.6-8.2-17.4-17.4-20.2l-0.9,2.7c8.2,2.4,14.3,9.3,15.4,17.8L145.4,89.1z"/>
</g>
<path fill="#020000" stroke="#000000" stroke-miterlimit="10" d="M315.1,61.8H190.9c-3.8,0-6.9-3.1-6.9-6.9v-1.2
	c0-3.8,3.1-6.9,6.9-6.9h124.2c3.8,0,6.9,3.1,6.9,6.9v1.2C322,58.7,318.9,61.8,315.1,61.8z"/>
<path fill="#5EB3E6" d="M402.8,91.2H189.7c-3.1,0-5.7-3.1-5.7-6.9v-1.2c0-3.8,2.5-6.9,5.7-6.9h213.1c3.1,0,5.7,3.1,5.7,6.9v1.2
	C408.5,88.1,406,91.2,402.8,91.2z"/>
<path fill="none" stroke="#000000" stroke-width="12" stroke-miterlimit="10" d="M427,245H87c-9.9,0-18-8.1-18-18v-49.5
	c0-9.9,8.1-18,18-18h340c9.9,0,18,8.1,18,18V227C445,236.9,436.9,245,427,245z"/>
<path fill="none" stroke="#000000" stroke-width="12" stroke-miterlimit="10" d="M426.5,378.4h-340c-9.9,0-18-8.1-18-18v-49.5
	c0-9.9,8.1-18,18-18h340c9.9,0,18,8.1,18,18v49.5C444.5,370.3,436.4,378.4,426.5,378.4z"/>
<path fill="#020000" stroke="#000000" stroke-miterlimit="10" d="M316.1,199.3H191.9c-3.8,0-6.9-3.1-6.9-6.9v-1.2
	c0-3.8,3.1-6.9,6.9-6.9h124.2c3.8,0,6.9,3.1,6.9,6.9v1.2C323,196.2,319.9,199.3,316.1,199.3z"/>
<path fill="#020000" stroke="#000000" stroke-miterlimit="10" d="M313.6,330.8H189.4c-3.8,0-6.9-3.1-6.9-6.9v-1.2
	c0-3.8,3.1-6.9,6.9-6.9h124.2c3.8,0,6.9,3.1,6.9,6.9v1.2C320.5,327.7,317.4,330.8,313.6,330.8z"/>
<path fill="#5DB3E5" d="M403.8,226.7H190.7c-3.1,0-5.7-3.1-5.7-6.9v-1.2c0-3.8,2.5-6.9,5.7-6.9h213.1c3.1,0,5.7,3.1,5.7,6.9v1.2
	C409.5,223.6,407,226.7,403.8,226.7z"/>
<path fill="#5EB3E6" d="M400.3,360.7H187.2c-3.1,0-5.7-3.1-5.7-6.9v-1.2c0-3.8,2.5-6.9,5.7-6.9h213.1c3.1,0,5.7,3.1,5.7,6.9v1.2
	C406,357.6,403.5,360.7,400.3,360.7z"/>
<path id="Mail" fill="#282D33" d="M144.6,179.6H94.8c-3.2,0-5.7,2.8-5.7,6.2v37.1c0,3.4,2.6,6.2,5.7,6.2h49.8c3.2,0,5.7-2.8,5.7-6.2
	v-37.1C150.4,182.3,147.8,179.6,144.6,179.6z M148.5,221.9l-18.1-19.5l18.1-12.4V221.9z M94.8,181.6h49.8c2.1,0,3.8,1.8,3.8,4.1v1.8
	l-26.4,18.1c-1.4,1-3.2,0.9-4.6-0.1L91,186.2v-0.5C91,183.5,92.7,181.6,94.8,181.6z M91,188.7l18.4,13.4L91,221.9V188.7z
	 M144.6,226.9H94.8c-1.6,0-2.9-1-3.5-2.5l19.7-21.1l5.4,4c1,0.8,2.2,1.1,3.4,1.1c1.1,0,2.3-0.3,3.3-1l5.6-3.8l19.4,20.9
	C147.6,225.9,146.2,226.9,144.6,226.9z"/>
<path fill="#282D33" d="M120.2,365.6c-15.1,0-30.3-3.1-30.3-9c0-5.3,11.8-7.5,16.8-8.1h0.2c0.7,0,1.3,0.5,1.4,1.2c0,0.4,0,0.7-0.3,1
	c-0.2,0.3-0.6,0.5-0.9,0.5c-10.5,1.5-14.4,4.1-14.4,5.5c0,2.5,10.7,6.3,27.5,6.3s27.5-3.7,27.5-6.3c0-1.4-3.9-4-14.5-5.5
	c-0.4,0-0.7-0.2-0.9-0.5c-0.2-0.3-0.3-0.6-0.3-1c0.1-0.7,0.7-1.2,1.4-1.2h0.2c5.1,0.7,17,2.9,17,8.1
	C150.5,362.5,135.3,365.6,120.2,365.6L120.2,365.6z M119.2,356c-0.7-0.6-17.1-15.5-17.1-30.1c0-9.5,8.1-17.3,18.1-17.3
	c10,0,18.1,7.8,18.1,17.3c0,14.2-16.4,29.4-17.1,30l-0.9,0.9L119.2,356L119.2,356z M120.2,311.3c-8.4,0-15.2,6.5-15.2,14.6
	c0,11.4,11.6,23.6,15.2,27.1c3.7-3.6,15.3-16,15.3-27.1C135.4,317.9,128.6,311.3,120.2,311.3z M120.2,333.6c-4.7,0-8.6-3.7-8.6-8.2
	s3.8-8.2,8.6-8.2s8.6,3.7,8.6,8.2S125,333.6,120.2,333.6z M120.2,319.9c-3.2,0-5.7,2.5-5.7,5.5s2.6,5.5,5.7,5.5s5.7-2.5,5.7-5.5
	S123.3,319.9,120.2,319.9z"/>
<path fill="#000102" d="M405.3,492.5H106.7c-8.7,0-15.8-7.1-15.8-15.8v-36c0-8.7,7.1-15.8,15.8-15.8h298.5c8.7,0,15.8,7.1,15.8,15.8
	v36C421,485.4,413.9,492.5,405.3,492.5z"/>
<path fill="#FEFEFE" stroke="#000000" stroke-width="4" stroke-miterlimit="10" d="M399.5,485h-296c-8.7,0-15.8-7.1-15.8-15.8v-36.5
	c0-8.7,7.1-15.8,15.8-15.8h296c8.7,0,15.8,7.1,15.8,15.8v36.5C415.3,477.9,408.2,485,399.5,485z"/>
<path fill="none" stroke="#22B573" stroke-width="9" stroke-miterlimit="10" d="M233.4,450.8l9.1,13.7c1.2,1.8,3.4,2.1,5,0.7
	l39.9-33"/>
</svg>
