<?xml version="1.0" encoding="utf-8"?>
<!-- Generator: Adobe Illustrator 23.0.5, SVG Export Plug-In . SVG Version: 6.00 Build 0)  -->
<svg version="1.1" id="Layer_1" xmlns="http://www.w3.org/2000/svg" xmlns:xlink="http://www.w3.org/1999/xlink" x="0px" y="0px"
	 viewBox="0 0 512 512" enable-background="new 0 0 512 512" xml:space="preserve">
<linearGradient id="SVGID_1_" gradientUnits="userSpaceOnUse" x1="16.7898" y1="366.9299" x2="257.4" y2="366.9299">
	<stop  offset="0.0763" style="stop-color:#FFFDEA"/>
	<stop  offset="1" style="stop-color:#FCDDE6"/>
</linearGradient>
<path fill="url(#SVGID_1_)" d="M242.95,463.24H31.24c-7.98,0-14.45-6.47-14.45-14.45V285.07c0-7.98,6.47-14.45,14.45-14.45h211.72
	c7.98,0,14.45,6.47,14.45,14.45v163.72C257.4,456.77,250.93,463.24,242.95,463.24z"/>
<path fill="#FEFEFE" d="M447.59,492.53H307.95c-26.7,0-48.34-21.64-48.34-48.34V64.85c0-26.7,21.64-48.34,48.34-48.34h139.64
	c26.7,0,48.34,21.64,48.34,48.34V444.2C495.92,470.89,474.28,492.53,447.59,492.53z"/>
<path fill="#020202" d="M501.5,445.3c0-1,0-2,0-3c0-109,0-217.9,0-326.9c0-18.7,0-37.5,0-56.2c0-1.9-0.2-3.8-0.5-5.8
	c-0.8-4.8-2-9.5-3.8-14c-2.6-6.4-6.4-12-11.3-16.8c-4.6-4.5-10-8-16.2-9.8c-2.7-0.8-5.4-1.9-8.4-1.9c-55.4,0.1-110.8,0-166.2,0
	c-2.4,0-4.8,0.3-7.1,1c-5,1.5-9.7,3.4-13.9,6.5c-9.3,6.8-15.1,15.9-18.4,26.8c-1.8,6.1-2.3,12.4-2.3,18.8c0.1,37.4,0,74.8,0,112.2
	c0,0.6,0.2,1.3-0.3,1.8c-0.3,0.1-0.5-0.1-0.8-0.2c-3.4-2.3-6.6-4.9-9.6-7.7c-1-1-1.8-1.2-2.9,0c-1.5,1.5-3.1,3-4.9,4.3
	c-9.2,7-19.7,11.5-30.7,14.7c-8.7,2.5-17.5,4-26.5,4.7c-10.5,0.8-20.8,0.1-31.2-1.6c-1.7-0.3-2,0-2,1.7c0,21,0,41.9,0,62.9
	c0,3.4-0.1,6.7-0.1,10.1c0.1,8.1,1.5,15.9,4.3,23.5c1.7,4.8,3.9,9.3,6.5,13.6c3.4,5.6,7.7,10.6,12.5,15c7,6.5,14.9,11.7,23.3,16.1
	c5.2,2.7,10.7,5.1,16.2,7.2c5.2,2.1,10.5,3.7,15.9,5.4c4.5,1.4,9,2.5,13.6,3.8c2.8,0.8,5.5,1.4,8.6,0.5c5.1-1.5,10.3-2.8,15.4-4.4
	c6.1-1.9,12.2-4,18.2-6.5c7.4-3.1,14.7-6.6,21.5-10.9c10.7-6.8,20-15.1,26.8-26c3.9-6.3,6.8-13,8.8-20.2c1.8-6.8,2.5-13.7,2.5-20.7
	c0.1-23.3,0-46.6,0-69.9c0-1.6-0.4-1.9-2-1.6c-8.2,1.2-16.3,2.3-24.7,2.1c-3.8-0.1-7.5-0.5-11.2-0.9c-5.5-0.5-10.9-1.6-16.3-2.7
	c-4-0.8-7.8-2.2-11.7-3.1c-2.9-0.7-3.2-1.1-3.2-3c0-40.6,0-81.2,0-121.8c0-4.6,0.2-9.1,2.1-13.4c0-0.1,0.1-0.2,0.2-0.3l0,0
	c0.1-0.5,0.2-0.9,0.4-1.3l0,0c0.2-0.7,0.4-1.3,0.8-1.9c0.5-1.2,1.3-2.3,2-3.4c3.1-5.2,7.7-8.8,13.3-11.1c2.5-1,5.3-1.8,8.2-1.7
	c5,0,10.1,0.1,15.1,0c1.5,0,1.8,0.5,1.8,1.8c-0.1,3.3-0.2,6.7,0,10c0.3,4.7,1.1,9.2,3.4,13.5c2.2,4.2,5,7.8,9.1,10.4
	c0.9,0.5,1.8,0.9,2.6,1.4c1.6,1.1,3.5,1.7,5.4,1.7c9,0.1,18,0.1,27,0.1c20.3,0,40.6,0,60.9-0.1c1.7,0,3.4-0.6,4.7-1.3
	c2.1-1.1,4.3-2.2,6.2-3.9c3.1-2.7,5.4-5.9,6.9-9.5c2.1-4.9,3.1-10.2,2.9-15.6c-0.1-2.3-0.1-4.6-0.1-7c0-1.1,0.3-1.6,1.6-1.6
	c3.8,0.1,7.6,0.2,11.4,0c5.8-0.2,11,1,16.1,3.9c5.2,3,8.5,7.5,11.2,12.6c1.4,2.7,2,5.7,2.8,8.6c0.8,2.9,0.7,5.8,0.7,8.8
	c0,88.2,0,176.4,0,264.6c0,38.6,0,77.2,0,115.8c0,3.9-0.2,7.8-1.4,11.6c-0.9,2.9-2.3,5.7-3.8,8.4c-3.1,5.7-7.8,9.5-13.7,11.8
	c-3.3,1.2-6.8,1.8-10.4,1.8c-50.4-0.1-100.7,0-151.1-0.1c-4.4,0-8.7,0.5-13.2-0.7c-2.4-0.6-4.8-1.3-6.9-2.3
	c-5.6-2.7-9.4-7.2-12.3-12.6c-0.5-1-0.2-2-0.8-2.8c-1.8-2.5-2.1-5.4-2.6-8.3c-0.4-2-0.2-4.2-0.2-6.3c0-28.9,0-57.9,0-86.8
	c0-1.5-0.6-1.9-1.8-1.9c-3,0-6,0-9.1,0c-1.1,0-1.4,0.5-1.4,1.5c0,3.2,0,6.4,0,9.7c0,0.6,0.2,1.2-0.2,1.7c-0.1,0-0.2,0.1-0.3,0.1
	c-20.1,0-40.2,0-60.4-0.1c-1.5,0-1.9,0.6-1.9,2c0.1,3.2,0,6.4,0,9.7c0,1.9,0.2,2.1,2.1,2.1c19.3,0,38.7,0,58,0c0.8,0,1.7,0,2.6,0
	v72.7c-1,0-2,0-2.9,0c-73.9,0-147.8,0-221.6,0c-1.2,0-2.3,0-3.5-0.1c-4.9-0.6-9.3-4.1-9.3-10.1c0.1-51.3,0.1-102.6,0.1-153.8
	c0-2.7,0-5.5,0-8.2c0-1.5,0.2-3,1-4.2c2.3-3.7,5.7-5.3,10-5.3c7.9,0,15.8,0,23.7,0c24.6,0,49.3,0,73.9,0c2.1,0,2.1-0.2,2.3-2.3
	c0.2-3-0.6-6-0.4-9c0.1-2-0.1-2.1-2.1-2.1c-20.1,0-40.3,0-60.4,0c-12.1,0-24.3,0-36.4,0c-6.4,0-12.4,1.5-17.6,5.3
	c-6,4.4-9.5,10.2-9.5,17.9c0,54.1,0,108.2,0,162.2c0,2.5,0,4.9,1,7.3c1.5,3.6,3.6,6.8,6.6,9.4c5.8,4.9,12.6,6.8,20.1,6.8
	c74.7,0,149.4,0,224,0c0.4,0,0.9,0.1,1.3-0.1c0.8-0.4,1.2,0,1.5,0.6c0.9,1.7,1.8,3.4,2.8,5.1c3.5,6,8.2,11,13.9,14.9
	c4.2,2.9,8.9,4.6,13.7,6c2.5,0.8,5.2,0.4,7.8,0.4c53.9,0.1,107.7,0,161.6,0c3.1,0,6.2-0.2,9.3-1.1c8-2.3,14.7-6.4,20.3-12.5
	c5-5.5,8.6-11.7,10.8-18.8C500.3,457,501.7,451.3,501.5,445.3z M290.1,205.5c10.1,1.7,20.2,2.2,30.4,1.8c1.3-0.1,1.5,0.5,1.5,1.6
	c0,10.6,0,21.1,0,32.2c-0.2,9.7,0.4,20-0.5,30.2c-0.4,4.4-1.4,8.7-2.7,13c-3.2,10.6-9.3,19.2-17.5,26.5c-6.5,5.7-13.8,10.2-21.6,14
	c-4.9,2.4-9.8,4.4-14.9,6.3c-5.8,2.1-11.7,3.8-17.6,5.8c-4.4,1.5-8.5,1.3-12.9-0.1c-8.5-2.7-16.9-5.3-25.1-8.8
	c-8.4-3.6-16.5-7.8-23.8-13.3c-7.7-5.8-14.1-12.6-18.6-21.2c-4.6-8.9-6.7-18.5-6.8-28.5c-0.1-18.1-0.1-36.2-0.1-54.3
	c0-3.3,0-3.3,3.3-3.2c10.9,0.4,21.7-0.5,32.4-2.5c7.1-1.3,14-3.1,20.8-5.5c8.4-3,16.4-6.6,23.7-11.6c0.6-0.4,1.1-0.4,1.7,0
	c8,5.3,16.7,9.2,25.8,12.3C275,202.5,282.5,204.2,290.1,205.5z M417.3,49.5h-81c-4.2,0-7.6-3.4-7.6-7.6V37c0-4.2,3.4-7.6,7.6-7.6h81
	c4.2,0,7.6,3.4,7.6,7.6v4.9C424.9,46.1,421.5,49.5,417.3,49.5z M430,457.5H321.7c-3.5,0-6.3-2.8-6.3-6.3v-6.3c0-3.5,2.8-6.3,6.3-6.3
	H430c3.5,0,6.3,2.8,6.3,6.3v6.3C436.3,454.7,433.4,457.5,430,457.5z"/>
<path fill="#F8C44F" d="M77.1,332.2c-9.4,0-18.8,0-28.3,0c-1.3,0-1.7-0.4-1.7-1.7c0-10.9,0-21.7,0-32.6c0-1.4,0.5-1.8,1.9-1.8
	c18.8,0,37.7,0,56.5,0c1.3,0,1.9,0.3,1.9,1.8c-0.1,10.9-0.1,21.7,0,32.6c0,1.3-0.5,1.8-1.7,1.8C96.2,332.2,86.6,332.2,77.1,332.2
	L77.1,332.2z"/>
<path fill="#020202" d="M115.1,421.3c-21.9,0-43.7,0-65.6,0c-2.3,0-2.4-0.1-2.4-2.4c0-3.2,0-6.3,0-9.5c0-1.4,0.6-1.9,1.9-1.9
	c0.6,0,1.2,0,1.7,0c43.4,0,86.7,0,130.1,0c2,0,2.3,0.3,2.3,2.3c0,3.1,0,6.2,0,9.3c0,1.9-0.3,2.2-2.2,2.2
	C159,421.3,137,421.3,115.1,421.3z"/>
<path fill="#020202" d="M75.5,369.7c9.9,0,19.8,0,29.7,0c2.1,0,2.2,0.1,2.2,2.2c0,3.1,0,6.1,0,9.2c0,2.2-0.1,2.3-2.4,2.3
	c-9.6,0-19.2,0-28.8,0c-10.2,0-20.4,0-30.7,0c-2.3,0-2.4-0.1-2.4-2.4c0-3,0-5.9,0-8.9c0-2.4,0-2.4,2.4-2.4
	C55.6,369.7,65.6,369.7,75.5,369.7z"/>
<path fill="#020202" d="M150.8,369.7c10,0,19.9,0,29.9,0c1.5,0,2,0.5,2,2c-0.1,3.3-0.1,6.7,0,10c0,1.4-0.5,1.8-1.9,1.8
	c-20,0-39.9,0-59.9,0c-2.1,0-2.3-0.2-2.3-2.4c0-3.1,0-6.1,0-9.2c0-2,0.2-2.2,2.2-2.2C130.8,369.7,140.8,369.7,150.8,369.7
	L150.8,369.7z"/>
<path fill="#FDFDFD" d="M322,241.1c-0.2,9.7,0.4,20-0.5,30.2c-0.4,4.4-1.4,8.7-2.7,13c-3.2,10.6-9.3,19.2-17.5,26.5
	c-6.5,5.7-13.8,10.2-21.6,14c-4.9,2.4-9.8,4.4-14.9,6.3c-5.8,2.1-11.7,3.8-17.6,5.8c-4.4,1.5-8.5,1.3-12.9-0.1
	c-8.5-2.7-16.9-5.3-25.1-8.8c-8.4-3.6-16.5-7.8-23.8-13.3c-7.7-5.8-14.1-12.6-18.6-21.2c-4.6-8.9-6.7-18.5-6.8-28.5
	c-0.1-18.1-0.1-36.2-0.1-54.3c0-3.3,0-3.3,3.3-3.2c10.9,0.4,21.7-0.5,32.4-2.5c7.1-1.3,14-3.1,20.8-5.5c8.4-3,16.4-6.6,23.7-11.6
	c0.6-0.4,1.1-0.4,1.7,0c8,5.3,16.7,9.2,25.8,12.3c7.3,2.5,14.8,4.2,22.5,5.5c10.1,1.7,20.2,2.2,30.4,1.8c1.3-0.1,1.5,0.5,1.5,1.6
	C322,219.4,322,230,322,241.1z M306.8,245.3h0.1c0-7.8,0-15.6,0-23.4c0-1.1-0.2-1.9-1.6-2c-13.2-0.7-26-3-38.7-6.8
	c-8.4-2.5-16.4-5.8-24.2-9.8c-0.8-0.4-1.5-0.8-2.4-0.3c-1.6,0.8-3.2,1.5-4.8,2.3c-6.3,3.2-12.9,5.5-19.6,7.6
	c-4.4,1.4-8.8,2.3-13.3,3.4c-5.2,1.2-10.6,1.9-15.9,2.6c-3.1,0.4-6.2,0.9-9.3,0.7c-1.8-0.1-2.3,0.6-2.3,2.2c0,13.8,0,27.6,0,41.3
	c0,4.5,0.2,9,1.2,13.5c1.9,8.2,5.6,15.3,11.4,21.5c8.2,8.7,18.3,14.1,29.2,18.6c7.5,3.1,15.2,5.5,23,7.7c0.9,0.3,1.8,0.2,2.7,0
	c5.9-1.8,11.7-3.6,17.5-5.7c9.5-3.5,18.6-7.8,26.8-13.8c12.6-9.3,19.5-21.7,20.1-37.3C307.1,260.2,306.8,252.8,306.8,245.3z"/>
<path fill="#5EB4E7" d="M306.9,245.3c0,7.4,0.2,14.9,0,22.3c-0.6,15.6-7.5,28-20.1,37.3c-8.2,6.1-17.3,10.3-26.8,13.8
	c-5.8,2.1-11.6,3.9-17.5,5.7c-0.9,0.3-1.7,0.3-2.7,0c-7.8-2.2-15.5-4.6-23-7.7c-10.8-4.5-21-10-29.2-18.6
	c-5.8-6.1-9.5-13.3-11.4-21.5c-1-4.5-1.2-9-1.2-13.5c-0.1-13.8,0-27.6,0-41.3c0-1.7,0.5-2.4,2.3-2.2c3.2,0.2,6.3-0.3,9.3-0.7
	c5.3-0.7,10.6-1.4,15.9-2.6c4.5-1,8.9-2,13.3-3.4c6.7-2.1,13.3-4.4,19.6-7.6c1.6-0.8,3.2-1.5,4.8-2.3c0.9-0.4,1.6-0.1,2.4,0.3
	c7.8,3.9,15.8,7.2,24.2,9.8c12.6,3.8,25.5,6.1,38.7,6.8c1.4,0.1,1.6,0.8,1.6,2c0,7.8,0,15.6,0,23.4C307,245.3,307,245.3,306.9,245.3
	z M243.4,223.2c-10.7,0.2-17.8,1.8-24.4,5.4c-9,4.9-15.6,11.8-18.7,21.7c-2.9,9.4-1.5,18.2,3.7,26.4c5.8,9.2,14.3,14.6,24.6,17.4
	c10.5,2.8,20.8,2.1,30.8-2c9-3.8,16.3-9.8,20.5-18.7c5.7-12.2,4.1-23.9-4.2-34.3C266.7,227.9,254.4,223.3,243.4,223.2z"/>
<path fill="#FDFDFD" d="M243.4,222c11,0.1,23.3,4.6,32.3,15.9c8.3,10.4,9.9,22.1,4.2,34.3c-4.2,8.9-11.4,14.9-20.5,18.7
	c-10,4.2-20.3,4.8-30.8,2c-10.3-2.8-18.9-8.3-24.6-17.4c-5.1-8.2-6.5-17-3.7-26.4c3-10,9.6-16.9,18.7-21.7
	C225.6,223.9,232.7,222.2,243.4,222z M238.5,277.1c0.9,0.1,1.3-0.1,1.7-0.6c4.5-5.3,9.6-9.9,14.1-15.1c3.2-3.7,6.8-7.1,10.2-10.7
	c1.1-1.2,1-2.1-0.3-3c-3.2-2.2-6.5-4.1-9.5-6.5c-1.1-0.9-2.2-1-3.3,0.2c-1.9,2.1-3.9,4.3-5.8,6.4c-2.8,3.1-5.9,6-8.7,9.2
	c-1,1.2-1.9,1.1-3,0.5c-1.8-1-3.6-2-5.4-3c-0.7-0.4-1.4-0.5-2,0.2c-2.3,3.1-4.6,6.3-6.8,9.5c-0.6,0.9-0.7,2.1,0.4,2.8
	c2.7,1.6,5.6,2.9,8.2,4.6c1.9,1.3,4.1,2.1,6.2,3.2C235.9,275.7,237.4,276.5,238.5,277.1z"/>
<path fill="#14C55B" d="M238.5,276.6c-1.2-0.6-2.6-1.4-4.1-2.2c-2.1-1.1-4.2-1.9-6.2-3.2c-2.6-1.8-5.5-3-8.2-4.6
	c-1.1-0.7-1-1.9-0.4-2.8c2.2-3.2,4.5-6.3,6.8-9.5c0.5-0.7,1.3-0.6,2-0.2c1.8,1,3.6,2,5.4,3c1.1,0.6,2,0.7,3-0.5
	c2.8-3.2,5.9-6.1,8.7-9.2c1.9-2.1,3.9-4.3,5.8-6.4c1.1-1.3,2.2-1.1,3.3-0.2c3,2.4,6.3,4.4,9.5,6.5c1.3,0.9,1.4,1.8,0.3,3
	c-3.4,3.6-6.9,7-10.2,10.7c-4.5,5.2-9.6,9.9-14.1,15.1C239.8,276.5,239.4,276.7,238.5,276.6z"/>
<g>
	<g>
		<defs>
			<rect id="SVGID_2_" x="277" y="76.8" width="199.6" height="105.8"/>
		</defs>
		<clipPath id="SVGID_3_">
			<use xlink:href="#SVGID_2_"  overflow="visible"/>
		</clipPath>
		<path id="path32" clip-path="url(#SVGID_3_)" fill="#696A6A" d="M292.7,152.6h1.3l-1.2,5.3c-0.2,0.8-0.1,1.4,0.1,1.8
			c0.2,0.4,0.7,0.6,1.4,0.6c0.7,0,1.2-0.2,1.6-0.6c0.4-0.4,0.7-1,0.9-1.8l1.2-5.3h1.3L298,158c-0.3,1.2-0.7,2-1.4,2.6
			c-0.7,0.6-1.6,0.9-2.7,0.9s-1.8-0.3-2.3-0.9c-0.4-0.6-0.5-1.5-0.2-2.6L292.7,152.6z"/>
	</g>
	<g>
		<defs>
			<rect id="SVGID_4_" x="277" y="76.8" width="199.6" height="105.8"/>
		</defs>
		<clipPath id="SVGID_5_">
			<use xlink:href="#SVGID_4_"  overflow="visible"/>
		</clipPath>
		<path id="path36" clip-path="url(#SVGID_5_)" fill="#696A6A" d="M299.1,161.3l2-9l3.9,5.3c0.1,0.1,0.2,0.3,0.3,0.5
			c0.1,0.2,0.2,0.4,0.3,0.6l1.4-6h1.2l-2,9l-3.9-5.4c-0.1-0.1-0.2-0.3-0.3-0.5c-0.1-0.2-0.2-0.3-0.3-0.5l-1.4,6L299.1,161.3
			L299.1,161.3z"/>
	</g>
	<g>
		<defs>
			<rect id="SVGID_6_" x="277" y="76.8" width="199.6" height="105.8"/>
		</defs>
		<clipPath id="SVGID_7_">
			<use xlink:href="#SVGID_6_"  overflow="visible"/>
		</clipPath>
		<path id="path40" clip-path="url(#SVGID_7_)" fill="#696A6A" d="M308,161.3l2-8.7h1.3l-2,8.7H308z"/>
	</g>
	<g>
		<defs>
			<rect id="SVGID_8_" x="277" y="76.8" width="199.6" height="105.8"/>
		</defs>
		<clipPath id="SVGID_9_">
			<use xlink:href="#SVGID_8_"  overflow="visible"/>
		</clipPath>
		<path id="path44" clip-path="url(#SVGID_9_)" fill="#696A6A" d="M311.2,161.3l2-8.7h4.4l-0.3,1.2h-3.2l-0.5,2.2h3.2l-0.3,1.2h-3.2
			l-0.9,4.1H311.2z"/>
	</g>
	<g>
		<defs>
			<rect id="SVGID_10_" x="277" y="76.8" width="199.6" height="105.8"/>
		</defs>
		<clipPath id="SVGID_11_">
			<use xlink:href="#SVGID_10_"  overflow="visible"/>
		</clipPath>
		<path id="path48" clip-path="url(#SVGID_11_)" fill="#696A6A" d="M317.1,161.3l2-8.7h1.3l-2,8.7H317.1z"/>
	</g>
	<g>
		<defs>
			<rect id="SVGID_12_" x="277" y="76.8" width="199.6" height="105.8"/>
		</defs>
		<clipPath id="SVGID_13_">
			<use xlink:href="#SVGID_12_"  overflow="visible"/>
		</clipPath>
		<path id="path52" clip-path="url(#SVGID_13_)" fill="#696A6A" d="M320.2,161.3l2-8.7h4.4l-0.3,1.2h-3.2l-0.5,2.2h3.2l-0.3,1.2
			h-3.2l-0.6,2.8h3.2l-0.3,1.3H320.2z"/>
	</g>
	<g>
		<defs>
			<rect id="SVGID_14_" x="277" y="76.8" width="199.6" height="105.8"/>
		</defs>
		<clipPath id="SVGID_15_">
			<use xlink:href="#SVGID_14_"  overflow="visible"/>
		</clipPath>
		<path id="path56" clip-path="url(#SVGID_15_)" fill="#696A6A" d="M327.8,160h1.1c0.6,0,1.1,0,1.4-0.1s0.6-0.2,0.9-0.4
			c0.4-0.3,0.7-0.6,0.9-1c0.2-0.4,0.4-0.9,0.6-1.5c0.1-0.6,0.2-1,0.1-1.5c-0.1-0.4-0.2-0.8-0.4-1c-0.2-0.2-0.4-0.4-0.7-0.4
			c-0.3-0.1-0.8-0.1-1.4-0.1h-0.5h-0.5L327.8,160z M326.2,161.3l2-8.7h1.7c1.1,0,1.9,0.1,2.4,0.2c0.4,0.1,0.8,0.3,1.1,0.6
			c0.4,0.4,0.6,0.9,0.7,1.5s0.1,1.3-0.1,2.1s-0.4,1.5-0.8,2c-0.4,0.6-0.8,1.1-1.4,1.5c-0.4,0.3-0.9,0.5-1.3,0.6
			c-0.5,0.1-1.2,0.2-2.1,0.2h-0.3L326.2,161.3L326.2,161.3z"/>
	</g>
	<g>
		<defs>
			<rect id="SVGID_16_" x="277" y="76.8" width="199.6" height="105.8"/>
		</defs>
		<clipPath id="SVGID_17_">
			<use xlink:href="#SVGID_16_"  overflow="visible"/>
		</clipPath>
		<path id="path60" clip-path="url(#SVGID_17_)" fill="#696A6A" d="M340.2,156.3h0.3c0.7,0,1.2-0.1,1.5-0.3s0.5-0.5,0.6-0.9
			c0.1-0.5,0.1-0.8-0.2-1c-0.2-0.2-0.7-0.3-1.3-0.3h-0.3L340.2,156.3z M339.9,157.4l-0.9,3.9h-1.2l2-8.7h2c0.6,0,1,0,1.3,0.1
			s0.5,0.2,0.6,0.3c0.2,0.2,0.3,0.5,0.4,0.8s0.1,0.7,0,1.1c-0.1,0.4-0.2,0.8-0.5,1.1c-0.2,0.3-0.5,0.6-0.8,0.8
			c-0.2,0.2-0.5,0.3-0.8,0.3c-0.3,0.1-0.7,0.1-1.3,0.1h-0.3h-0.5V157.4z"/>
	</g>
	<g>
		<defs>
			<rect id="SVGID_18_" x="277" y="76.8" width="199.6" height="105.8"/>
		</defs>
		<clipPath id="SVGID_19_">
			<use xlink:href="#SVGID_18_"  overflow="visible"/>
		</clipPath>
		<path id="path64" clip-path="url(#SVGID_19_)" fill="#696A6A" d="M345.6,157.9h2.2l-0.4-2c0-0.1,0-0.3,0-0.4c0-0.2,0-0.3,0-0.5
			c-0.1,0.2-0.2,0.4-0.3,0.5c-0.1,0.2-0.2,0.3-0.3,0.5L345.6,157.9z M348.4,161.3l-0.4-2.2h-3.2l-1.4,2.2H342l5.9-9l1.8,9H348.4z"/>
	</g>
	<g>
		<defs>
			<rect id="SVGID_20_" x="277" y="76.8" width="199.6" height="105.8"/>
		</defs>
		<clipPath id="SVGID_21_">
			<use xlink:href="#SVGID_20_"  overflow="visible"/>
		</clipPath>
		<path id="path68" clip-path="url(#SVGID_21_)" fill="#696A6A" d="M351.6,161.3l0.9-4l-1.6-4.7h1.4l1,2.9c0,0.1,0.1,0.2,0.1,0.3
			s0.1,0.3,0.1,0.4c0.1-0.1,0.2-0.3,0.2-0.4c0.1-0.1,0.2-0.2,0.3-0.3l2.4-2.9h1.3l-3.8,4.7l-0.9,4H351.6z"/>
	</g>
	<g>
		<defs>
			<rect id="SVGID_22_" x="277" y="76.8" width="199.6" height="105.8"/>
		</defs>
		<clipPath id="SVGID_23_">
			<use xlink:href="#SVGID_22_"  overflow="visible"/>
		</clipPath>
		<path id="path72" clip-path="url(#SVGID_23_)" fill="#696A6A" d="M364,157c0-0.1,0-0.3,0.1-0.6c0-0.3,0-0.5,0.1-0.6
			c-0.1,0.2-0.2,0.4-0.3,0.6c-0.1,0.2-0.2,0.4-0.4,0.6l-3.1,4.6l-1-4.7c0-0.2-0.1-0.4-0.1-0.6c0-0.2,0-0.4,0-0.5
			c0,0.2-0.1,0.4-0.2,0.6c-0.1,0.2-0.2,0.4-0.2,0.6l-1.8,4.3h-1.2l3.9-9l1.1,5.5c0,0.1,0,0.2,0.1,0.4c0,0.2,0.1,0.4,0.1,0.7
			c0.1-0.2,0.3-0.6,0.6-0.9c0.1-0.1,0.1-0.2,0.2-0.2l3.5-5.5l-0.1,9h-1.2L364,157z"/>
	</g>
	<g>
		<defs>
			<rect id="SVGID_24_" x="277" y="76.8" width="199.6" height="105.8"/>
		</defs>
		<clipPath id="SVGID_25_">
			<use xlink:href="#SVGID_24_"  overflow="visible"/>
		</clipPath>
		<path id="path76" clip-path="url(#SVGID_25_)" fill="#696A6A" d="M366.1,161.3l2-8.7h4.4l-0.3,1.2H369l-0.5,2.2h3.2l-0.3,1.2h-3.2
			l-0.6,2.8h3.2l-0.3,1.3H366.1z"/>
	</g>
	<g>
		<defs>
			<rect id="SVGID_26_" x="277" y="76.8" width="199.6" height="105.8"/>
		</defs>
		<clipPath id="SVGID_27_">
			<use xlink:href="#SVGID_26_"  overflow="visible"/>
		</clipPath>
		<path id="path80" clip-path="url(#SVGID_27_)" fill="#696A6A" d="M372.1,161.3l2-9l3.9,5.3c0.1,0.1,0.2,0.3,0.3,0.5
			s0.2,0.4,0.3,0.6l1.4-6h1.2l-2,9l-3.9-5.4c-0.1-0.1-0.2-0.3-0.3-0.5c-0.1-0.2-0.2-0.3-0.3-0.5l-1.4,6L372.1,161.3L372.1,161.3z"/>
	</g>
	<g>
		<defs>
			<rect id="SVGID_28_" x="277" y="76.8" width="199.6" height="105.8"/>
		</defs>
		<clipPath id="SVGID_29_">
			<use xlink:href="#SVGID_28_"  overflow="visible"/>
		</clipPath>
		<path id="path84" clip-path="url(#SVGID_29_)" fill="#696A6A" d="M385.3,153.8l-1.7,7.5h-1.3l1.7-7.5h-2.1l0.3-1.2h5.5l-0.3,1.2
			H385.3z"/>
	</g>
	<g>
		<defs>
			<rect id="SVGID_30_" x="277" y="76.8" width="199.6" height="105.8"/>
		</defs>
		<clipPath id="SVGID_31_">
			<use xlink:href="#SVGID_30_"  overflow="visible"/>
		</clipPath>
		<path id="path88" clip-path="url(#SVGID_31_)" fill="#696A6A" d="M386.6,159.6l1.2-0.5c0,0.4,0.1,0.7,0.3,0.9
			c0.2,0.2,0.5,0.3,0.9,0.3s0.7-0.1,1-0.3s0.5-0.5,0.6-0.9c0.1-0.5-0.2-1-0.9-1.4c-0.1-0.1-0.2-0.1-0.2-0.1
			c-0.8-0.5-1.3-0.9-1.5-1.3c-0.2-0.4-0.2-0.8-0.1-1.4c0.2-0.7,0.5-1.3,1-1.7s1.2-0.7,1.9-0.7c0.6,0,1.1,0.1,1.4,0.4
			c0.3,0.2,0.5,0.6,0.6,1.1l-1.1,0.6c-0.1-0.3-0.2-0.5-0.4-0.6c-0.2-0.1-0.4-0.2-0.6-0.2c-0.3,0-0.6,0.1-0.9,0.3
			c-0.2,0.2-0.4,0.5-0.5,0.8c-0.1,0.5,0.2,1,1,1.5c0.1,0,0.1,0.1,0.1,0.1c0.7,0.4,1.2,0.8,1.4,1.2c0.2,0.4,0.2,0.8,0.1,1.4
			c-0.2,0.8-0.6,1.5-1.2,2s-1.3,0.7-2.1,0.7c-0.7,0-1.2-0.2-1.6-0.5C386.8,160.7,386.6,160.2,386.6,159.6"/>
	</g>
	<g>
		<defs>
			<rect id="SVGID_32_" x="277" y="76.8" width="199.6" height="105.8"/>
		</defs>
		<clipPath id="SVGID_33_">
			<use xlink:href="#SVGID_32_"  overflow="visible"/>
		</clipPath>
		<path id="path92" clip-path="url(#SVGID_33_)" fill="#696A6A" d="M396.2,161.3l2-8.7h1.3l-2,8.7H396.2z"/>
	</g>
	<g>
		<defs>
			<rect id="SVGID_34_" x="277" y="76.8" width="199.6" height="105.8"/>
		</defs>
		<clipPath id="SVGID_35_">
			<use xlink:href="#SVGID_34_"  overflow="visible"/>
		</clipPath>
		<path id="path96" clip-path="url(#SVGID_35_)" fill="#696A6A" d="M399.4,161.3l2-9l3.9,5.3c0.1,0.1,0.2,0.3,0.3,0.5
			c0.1,0.2,0.2,0.4,0.3,0.6l1.4-6h1.2l-2,9l-3.9-5.4c-0.1-0.1-0.2-0.3-0.3-0.5c-0.1-0.2-0.2-0.3-0.3-0.5l-1.4,6L399.4,161.3
			L399.4,161.3z"/>
	</g>
	<g>
		<defs>
			<rect id="SVGID_36_" x="277" y="76.8" width="199.6" height="105.8"/>
		</defs>
		<clipPath id="SVGID_37_">
			<use xlink:href="#SVGID_36_"  overflow="visible"/>
		</clipPath>
		<path id="path100" clip-path="url(#SVGID_37_)" fill="#696A6A" d="M412.6,153.8l-1.7,7.5h-1.3l1.7-7.5h-2.1l0.3-1.2h5.5l-0.3,1.2
			H412.6z"/>
	</g>
	<g>
		<defs>
			<rect id="SVGID_38_" x="277" y="76.8" width="199.6" height="105.8"/>
		</defs>
		<clipPath id="SVGID_39_">
			<use xlink:href="#SVGID_38_"  overflow="visible"/>
		</clipPath>
		<path id="path104" clip-path="url(#SVGID_39_)" fill="#696A6A" d="M414,161.3l2-8.7h4.4l-0.3,1.2H417l-0.5,2.2h3.2l-0.3,1.2h-3.2
			l-0.6,2.8h3.2l-0.3,1.3H414z"/>
	</g>
	<g>
		<defs>
			<rect id="SVGID_40_" x="277" y="76.8" width="199.6" height="105.8"/>
		</defs>
		<clipPath id="SVGID_41_">
			<use xlink:href="#SVGID_40_"  overflow="visible"/>
		</clipPath>
		<path id="path108" clip-path="url(#SVGID_41_)" fill="#696A6A" d="M422.4,156.3h0.2c0.7,0,1.2-0.1,1.4-0.3
			c0.3-0.2,0.4-0.5,0.5-0.9c0.1-0.5,0.1-0.8-0.1-1s-0.6-0.3-1.3-0.3h-0.2L422.4,156.3z M422,157.4l-0.9,3.9h-1.2l2-8.7h1.8
			c0.5,0,0.9,0,1.2,0.1c0.3,0.1,0.5,0.2,0.7,0.4s0.3,0.5,0.4,0.8s0,0.7,0,1.1c-0.2,0.7-0.4,1.2-0.8,1.6c-0.4,0.4-0.9,0.6-1.5,0.7
			l1.9,3.9h-1.5l-1.8-3.9H422V157.4z"/>
	</g>
	<g>
		<defs>
			<rect id="SVGID_42_" x="277" y="76.8" width="199.6" height="105.8"/>
		</defs>
		<clipPath id="SVGID_43_">
			<use xlink:href="#SVGID_42_"  overflow="visible"/>
		</clipPath>
		<path id="path112" clip-path="url(#SVGID_43_)" fill="#696A6A" d="M426.2,161.3l2-8.7h4.4l-0.3,1.2h-3.2l-0.5,2.2h3.2l-0.3,1.2
			h-3.2l-0.9,4.1H426.2z"/>
	</g>
	<g>
		<defs>
			<rect id="SVGID_44_" x="277" y="76.8" width="199.6" height="105.8"/>
		</defs>
		<clipPath id="SVGID_45_">
			<use xlink:href="#SVGID_44_"  overflow="visible"/>
		</clipPath>
		<path id="path116" clip-path="url(#SVGID_45_)" fill="#696A6A" d="M434.1,157.9h2.2l-0.4-2c0-0.1,0-0.3,0-0.4c0-0.2,0-0.3,0-0.5
			c-0.1,0.2-0.2,0.4-0.3,0.5c-0.1,0.2-0.2,0.3-0.3,0.5L434.1,157.9z M436.9,161.3l-0.4-2.2h-3.2l-1.4,2.2h-1.4l5.9-9l1.8,9H436.9z"
			/>
	</g>
	<g>
		<defs>
			<rect id="SVGID_46_" x="277" y="76.8" width="199.6" height="105.8"/>
		</defs>
		<clipPath id="SVGID_47_">
			<use xlink:href="#SVGID_46_"  overflow="visible"/>
		</clipPath>
		<path id="path120" clip-path="url(#SVGID_47_)" fill="#696A6A" d="M446.7,154.7c-0.3-0.3-0.6-0.6-1-0.8s-0.8-0.3-1.2-0.3
			c-0.9,0-1.6,0.3-2.3,0.9c-0.7,0.6-1.1,1.4-1.4,2.4c-0.2,0.9-0.1,1.7,0.3,2.3s1,0.9,1.8,0.9c0.5,0,0.9-0.1,1.4-0.3s0.9-0.5,1.4-0.8
			l-0.4,1.6c-0.4,0.3-0.8,0.5-1.3,0.6c-0.4,0.1-0.9,0.2-1.4,0.2c-0.6,0-1.1-0.1-1.6-0.3s-0.9-0.5-1.1-1c-0.3-0.4-0.5-0.9-0.6-1.5
			s-0.1-1.2,0.1-1.8c0.1-0.6,0.4-1.2,0.7-1.8c0.3-0.6,0.7-1,1.2-1.5c0.5-0.4,1-0.7,1.6-1c0.6-0.2,1.1-0.3,1.7-0.3
			c0.5,0,0.9,0.1,1.3,0.2c0.4,0.1,0.8,0.4,1.1,0.7L446.7,154.7z"/>
	</g>
	<g>
		<defs>
			<rect id="SVGID_48_" x="277" y="76.8" width="199.6" height="105.8"/>
		</defs>
		<clipPath id="SVGID_49_">
			<use xlink:href="#SVGID_48_"  overflow="visible"/>
		</clipPath>
		<path id="path124" clip-path="url(#SVGID_49_)" fill="#696A6A" d="M446.8,161.3l2-8.7h4.4l-0.3,1.2h-3.2l-0.5,2.2h3.2l-0.3,1.2
			H449l-0.6,2.8h3.2l-0.3,1.3H446.8z"/>
	</g>
	<g>
		<defs>
			<rect id="SVGID_50_" x="277" y="76.8" width="199.6" height="105.8"/>
		</defs>
		<clipPath id="SVGID_51_">
			<use xlink:href="#SVGID_50_"  overflow="visible"/>
		</clipPath>
		<path id="path128" clip-path="url(#SVGID_51_)" fill="#66686C" d="M423.2,145.1h-8.9l12.4-47.4h8.9L423.2,145.1z"/>
	</g>
	<g>
		<defs>
			<rect id="SVGID_52_" x="277" y="76.8" width="199.6" height="105.8"/>
		</defs>
		<clipPath id="SVGID_53_">
			<use xlink:href="#SVGID_52_"  overflow="visible"/>
		</clipPath>
		<path id="path132" clip-path="url(#SVGID_53_)" fill="#66686C" d="M418.6,99.2c-0.6-0.9-1.6-1.4-2.9-1.4h-49l-2.4,9.3h8.9l0,0
			h35.7l-2.6,9.9h-35.7l0,0h-8.9l-7.4,28.3h8.9l5-19h40.1c1.3,0,2.4-0.5,3.5-1.4s1.8-2,2.2-3.4l5-19
			C419.3,101.2,419.2,100.1,418.6,99.2"/>
	</g>
	<g>
		<defs>
			<rect id="SVGID_54_" x="277" y="76.8" width="199.6" height="105.8"/>
		</defs>
		<clipPath id="SVGID_55_">
			<use xlink:href="#SVGID_54_"  overflow="visible"/>
		</clipPath>
		<path id="path136" clip-path="url(#SVGID_55_)" fill="#66686C" d="M349.1,142.1c-0.5,1.9-2.1,3.2-3.9,3.2h-46
			c-1.3,0-2.2-0.5-2.8-1.4c-0.6-0.9-0.7-2-0.4-3.4l11.2-42.8h8.9l-10,38.2h35.7l10-38.2h8.9L349.1,142.1z"/>
	</g>
	<g>
		<defs>
			<rect id="SVGID_56_" x="277" y="76.8" width="199.6" height="105.8"/>
		</defs>
		<clipPath id="SVGID_57_">
			<use xlink:href="#SVGID_56_"  overflow="visible"/>
		</clipPath>
		<path id="path140" clip-path="url(#SVGID_57_)" fill="#27803B" d="M451,97.7l11.3,23.8l-23.7,23.8L451,97.7z"/>
	</g>
	<g>
		<defs>
			<rect id="SVGID_58_" x="277" y="76.8" width="199.6" height="105.8"/>
		</defs>
		<clipPath id="SVGID_59_">
			<use xlink:href="#SVGID_58_"  overflow="visible"/>
		</clipPath>
		<path id="path144" clip-path="url(#SVGID_59_)" fill="#E9661C" d="M443.1,97.7l11.3,23.8l-23.7,23.8L443.1,97.7z"/>
	</g>
</g>
</svg>
