<?xml version="1.0" standalone="no"?>
<!DOCTYPE svg PUBLIC "-//W3C//DTD SVG 20010904//EN"
 "http://www.w3.org/TR/2001/REC-SVG-20010904/DTD/svg10.dtd">
<svg version="1.0" xmlns="http://www.w3.org/2000/svg"
 width="512.000000pt" height="548.000000pt" viewBox="0 0 512.000000 548.000000"
 preserveAspectRatio="xMidYMid meet">
<metadata>
Created by potrace 1.16, written by Peter Selinger 2001-2019
</metadata>
<g transform="translate(0.000000,548.000000) scale(0.100000,-0.100000)"
fill="#000000" stroke="none">
<path d="M596 5094 c-14 -14 -16 -230 -16 -2234 0 -2004 2 -2220 16 -2234 14
-14 183 -16 1708 -16 1303 0 1695 3 1704 12 17 17 17 4459 0 4476 -9 9 -401
12 -1704 12 -1525 0 -1694 -2 -1708 -16z m3344 -2234 l0 -2160 -1635 0 -1635
0 0 2160 0 2160 1635 0 1635 0 0 -2160z"/>
<path d="M1740 4590 l0 -180 30 0 30 0 0 76 c0 65 2 75 17 72 11 -2 23 -27 37
-75 20 -72 21 -73 54 -73 23 0 33 4 30 13 -3 6 -15 42 -27 79 l-22 67 20 20
c16 16 21 34 21 79 0 84 -21 102 -118 102 l-72 0 0 -180z m118 128 c7 -7 12
-31 12 -55 0 -32 -5 -45 -19 -53 -43 -23 -51 -14 -51 55 0 61 1 65 23 65 13 0
28 -5 35 -12z"/>
<path d="M1980 4590 l0 -180 85 0 c78 0 85 2 85 20 0 18 -7 20 -55 20 l-55 0
0 60 0 60 50 0 c43 0 50 3 50 20 0 17 -7 20 -50 20 l-50 0 0 60 0 60 55 0 c48
0 55 2 55 20 0 18 -7 20 -85 20 l-85 0 0 -180z"/>
<path d="M2190 4590 l0 -180 25 0 25 0 0 102 c0 57 4 98 8 93 5 -6 24 -52 43
-102 32 -86 36 -93 62 -93 l27 0 0 180 0 180 -30 0 -29 0 -3 -97 -3 -98 -35
97 c-33 92 -37 98 -62 98 l-28 0 0 -180z"/>
<path d="M2400 4750 c0 -16 7 -20 35 -20 l35 0 0 -160 0 -160 30 0 30 0 0 160
0 160 30 0 c23 0 30 4 30 20 0 19 -7 20 -95 20 -88 0 -95 -1 -95 -20z"/>
<path d="M2680 4766 c0 -1 -18 -80 -40 -175 -22 -94 -40 -174 -40 -176 0 -3
13 -5 30 -5 24 0 31 5 36 28 11 49 13 52 48 52 32 0 35 -2 41 -40 6 -37 9 -40
40 -40 l33 0 -13 58 c-8 31 -26 112 -41 180 l-28 122 -33 0 c-18 0 -33 -2 -33
-4z m54 -198 c7 -36 6 -38 -20 -38 -26 0 -26 1 -19 46 3 26 9 54 13 62 6 18
13 1 26 -70z"/>
<path d="M2860 4590 l0 -180 80 0 c73 0 80 2 80 20 0 17 -7 20 -50 20 l-50 0
0 160 0 160 -30 0 -30 0 0 -180z"/>
<path d="M1583 4150 c-37 -15 -43 -42 -43 -184 0 -165 6 -176 94 -176 77 0 96
25 96 126 l0 74 -55 0 c-48 0 -55 -2 -55 -20 0 -15 7 -20 25 -20 23 0 25 -3
25 -49 0 -54 -17 -77 -50 -66 -20 6 -20 12 -18 138 l3 132 25 0 c20 0 26 -6
28 -27 3 -25 8 -28 39 -28 35 0 35 1 29 33 -12 62 -78 93 -143 67z"/>
<path d="M1360 4146 c0 -1 -18 -80 -40 -175 -22 -94 -40 -174 -40 -176 0 -3
13 -5 30 -5 24 0 31 5 36 28 11 49 13 52 48 52 32 0 35 -2 41 -40 6 -37 9 -40
40 -40 l33 0 -13 58 c-8 31 -26 112 -41 180 l-28 122 -33 0 c-18 0 -33 -2 -33
-4z m54 -198 c7 -36 6 -38 -20 -38 -26 0 -26 1 -19 46 3 26 9 54 13 62 6 18
13 1 26 -70z"/>
<path d="M1780 3970 l0 -180 30 0 30 0 0 76 c0 65 2 75 17 72 11 -2 23 -27 37
-75 20 -72 21 -73 54 -73 23 0 33 4 30 13 -3 6 -15 42 -27 79 l-22 67 20 20
c16 16 21 34 21 79 0 84 -21 102 -118 102 l-72 0 0 -180z m118 128 c7 -7 12
-31 12 -55 0 -32 -5 -45 -19 -53 -43 -23 -51 -14 -51 55 0 61 1 65 23 65 13 0
28 -5 35 -12z"/>
<path d="M2020 3970 l0 -180 85 0 c78 0 85 2 85 20 0 18 -7 20 -55 20 l-55 0
0 60 0 60 50 0 c43 0 50 3 50 20 0 17 -7 20 -50 20 l-50 0 0 60 0 60 55 0 c48
0 55 2 55 20 0 18 -7 20 -85 20 l-85 0 0 -180z"/>
<path d="M2230 3970 l0 -180 85 0 c78 0 85 2 85 20 0 18 -7 20 -55 20 l-55 0
0 60 0 60 50 0 c43 0 50 3 50 20 0 17 -7 20 -50 20 l-50 0 0 60 0 60 55 0 c48
0 55 2 55 20 0 18 -7 20 -85 20 l-85 0 0 -180z"/>
<path d="M2440 3970 l0 -180 25 0 c25 0 25 1 25 87 0 47 3 83 7 79 4 -4 14
-30 23 -59 13 -44 19 -52 40 -52 22 0 28 8 47 65 l21 65 1 -92 1 -93 30 0 30
0 0 181 0 180 -32 -3 c-30 -3 -32 -6 -63 -103 -36 -114 -34 -115 -76 30 -21
71 -24 75 -51 75 l-28 0 0 -180z"/>
<path d="M2740 3970 l0 -180 85 0 c78 0 85 2 85 20 0 18 -7 20 -55 20 l-55 0
0 60 0 60 50 0 c43 0 50 3 50 20 0 17 -7 20 -50 20 l-50 0 0 60 0 60 55 0 c48
0 55 2 55 20 0 18 -7 20 -85 20 l-85 0 0 -180z"/>
<path d="M2950 3970 l0 -180 25 0 25 0 0 102 c0 57 4 98 8 93 5 -6 24 -52 43
-102 32 -86 36 -93 62 -93 l27 0 0 180 0 180 -30 0 -29 0 -3 -97 -3 -98 -35
97 c-33 92 -37 98 -62 98 l-28 0 0 -180z"/>
<path d="M3160 4130 c0 -16 7 -20 35 -20 l35 0 0 -160 0 -160 30 0 30 0 0 160
0 160 30 0 c23 0 30 4 30 20 0 19 -7 20 -95 20 -88 0 -95 -1 -95 -20z"/>
<path d="M1247 3583 c-2 -5 -3 -24 -3 -43 l1 -35 1053 -3 1052 -2 0 45 0 45
-1049 0 c-578 0 -1052 -3 -1054 -7z"/>
<path d="M1242 3130 l2 -40 1053 0 1053 0 0 40 0 40 -1055 0 -1056 0 3 -40z"/>
<path d="M1242 2680 l-2 -40 1073 0 1074 0 -1 40 -1 40 -1070 0 -1070 0 -3
-40z"/>
<path d="M1242 2200 l2 -40 1053 0 1053 0 0 40 0 40 -1055 0 -1056 0 3 -40z"/>
<path d="M1242 1750 l-2 -40 1073 0 1074 0 -1 40 -1 40 -1070 0 -1070 0 -3
-40z"/>
<path d="M1248 1343 c-2 -5 -3 -24 -3 -43 l0 -35 303 -3 303 -2 -3 42 -3 43
-297 3 c-163 1 -298 -1 -300 -5z"/>
<path d="M2787 1343 c-4 -3 -7 -24 -7 -45 l0 -38 302 2 302 3 0 40 1 40 -296
3 c-162 1 -298 -1 -302 -5z"/>
<path d="M4360 4314 c-55 -24 -99 -73 -115 -128 -22 -74 -22 -1223 0 -1252 12
-16 14 -115 15 -684 0 -557 2 -669 14 -686 8 -11 35 -101 61 -199 50 -191 67
-225 115 -225 48 0 65 34 115 225 26 99 52 186 58 194 9 10 14 204 19 695 16
1447 22 1723 36 1699 9 -17 12 -153 12 -585 0 -425 3 -567 12 -576 19 -19 56
-14 68 8 7 14 10 199 8 587 -3 551 -4 569 -23 603 -12 19 -38 44 -58 55 -35
19 -37 23 -37 71 0 60 -36 140 -77 170 -61 45 -157 57 -223 28z m134 -78 c51
-21 76 -60 76 -117 l0 -49 -126 0 -126 0 4 55 c5 60 24 89 73 111 39 17 58 17
99 0z m76 -741 l0 -485 -125 0 -125 0 0 485 0 485 125 0 125 0 0 -485z m-12
-1232 l-3 -658 -105 0 -105 0 -3 658 -2 657 110 0 110 0 -2 -657z m-48 -760
c0 -18 -55 -223 -60 -223 -5 0 -60 205 -60 223 0 4 27 7 60 7 33 0 60 -3 60
-7z"/>
</g>
</svg>
