<?xml version="1.0" encoding="utf-8"?>
<!-- Generator: Adobe Illustrator 23.0.5, SVG Export Plug-In . SVG Version: 6.00 Build 0)  -->
<svg version="1.1" id="Layer_1" xmlns="http://www.w3.org/2000/svg" xmlns:xlink="http://www.w3.org/1999/xlink" x="0px" y="0px"
	 viewBox="0 0 283 53" enable-background="new 0 0 283 53" xml:space="preserve">
<path fill="#FF0025" d="M70.82,32.44c0-0.3,28.27,3.79,68.59,5.38c20.7,0.82,39.24,1.1,49.09,1.21c25.69,0.28,54.73-1.71,54.74-1.53
	c0.02,0.31-53.67,5.33-103.35,2.74C100.37,38.18,70.82,33.69,70.82,32.44z"/>
<g>
	<ellipse fill="#FC0303" stroke="#FF0025" stroke-width="0.8277" cx="27.5" cy="23.23" rx="22.44" ry="22.34"/>
	<g>
		<linearGradient id="SVGID_1_" gradientUnits="userSpaceOnUse" x1="30.8337" y1="43.6739" x2="34.3583" y2="57.9794">
			<stop  offset="0" style="stop-color:#FFFFFF"/>
			<stop  offset="1" style="stop-color:#000000"/>
		</linearGradient>
		<path fill="url(#SVGID_1_)" d="M16.57,28.87c0.16,8.79,6.14,12.41,13.07,12.41c4.96,0,7.95-0.81,10.55-1.85l1.18,4.65
			c-2.44,1.03-6.61,2.22-12.67,2.22c-11.73,0-18.74-7.24-18.74-18.02C9.96,17.49,16.73,9,27.83,9c12.44,0,15.74,10.27,15.74,16.84
			c0,1.33-0.16,2.36-0.24,3.03H16.57z M36.88,24.35c0.08-4.14-1.81-10.56-9.6-10.56c-7.01,0-10.08,6.06-10.63,10.56H36.88z"/>
	</g>
</g>
<g opacity="0.94">
	<path stroke="#020000" stroke-width="0.25" d="M67.02,28.49c0,1.03-0.2,1.94-0.6,2.75c-0.4,0.8-0.96,1.48-1.68,2.04
		s-1.56,0.98-2.53,1.26c-0.97,0.28-2.01,0.42-3.13,0.42c-0.78,0-1.51-0.06-2.17-0.19c-0.67-0.13-1.26-0.28-1.79-0.46
		s-0.96-0.37-1.32-0.56s-0.6-0.36-0.74-0.49c-0.14-0.14-0.24-0.31-0.31-0.52c-0.07-0.21-0.1-0.49-0.1-0.84
		c0-0.25,0.01-0.46,0.04-0.62c0.02-0.16,0.06-0.3,0.11-0.4c0.05-0.1,0.11-0.17,0.18-0.21c0.07-0.04,0.16-0.06,0.25-0.06
		c0.17,0,0.41,0.1,0.71,0.29c0.31,0.19,0.7,0.4,1.18,0.63c0.48,0.23,1.06,0.44,1.74,0.64c0.68,0.2,1.46,0.3,2.36,0.3
		c0.67,0,1.29-0.08,1.85-0.25s1.04-0.41,1.44-0.72c0.4-0.31,0.71-0.69,0.93-1.14c0.22-0.45,0.32-0.97,0.32-1.54
		c0-0.62-0.15-1.15-0.45-1.59c-0.3-0.44-0.7-0.83-1.19-1.16c-0.49-0.33-1.06-0.64-1.69-0.92c-0.63-0.28-1.28-0.56-1.94-0.85
		s-1.31-0.61-1.93-0.96c-0.63-0.35-1.19-0.76-1.68-1.24s-0.89-1.03-1.2-1.67c-0.31-0.64-0.46-1.4-0.46-2.3
		c0-0.92,0.18-1.73,0.53-2.45c0.35-0.72,0.85-1.32,1.48-1.81s1.38-0.86,2.26-1.11c0.87-0.25,1.81-0.38,2.82-0.38
		c0.52,0,1.04,0.04,1.56,0.13c0.52,0.08,1.02,0.2,1.48,0.34c0.46,0.14,0.88,0.3,1.24,0.47c0.36,0.18,0.6,0.32,0.71,0.42
		c0.11,0.11,0.19,0.19,0.23,0.25c0.04,0.06,0.07,0.14,0.09,0.24c0.02,0.1,0.04,0.21,0.05,0.35c0.01,0.14,0.02,0.31,0.02,0.53
		c0,0.2-0.01,0.38-0.03,0.54s-0.05,0.29-0.08,0.4c-0.04,0.11-0.09,0.19-0.15,0.24s-0.14,0.08-0.23,0.08c-0.13,0-0.34-0.08-0.62-0.24
		c-0.28-0.16-0.63-0.34-1.04-0.53c-0.41-0.2-0.89-0.38-1.45-0.54c-0.56-0.16-1.19-0.25-1.89-0.25c-0.65,0-1.22,0.08-1.7,0.25
		c-0.48,0.16-0.88,0.38-1.19,0.65c-0.31,0.27-0.55,0.59-0.7,0.97s-0.23,0.77-0.23,1.19c0,0.61,0.15,1.14,0.45,1.58
		c0.3,0.44,0.7,0.83,1.2,1.17c0.5,0.34,1.07,0.65,1.71,0.93s1.29,0.57,1.95,0.86c0.66,0.29,1.31,0.6,1.95,0.95
		c0.64,0.35,1.21,0.75,1.71,1.22c0.5,0.47,0.9,1.02,1.21,1.66C66.87,26.87,67.02,27.62,67.02,28.49z"/>
	<path stroke="#020000" stroke-width="0.25" d="M79.57,33.1c0,0.33-0.02,0.59-0.07,0.78s-0.12,0.33-0.22,0.42
		c-0.1,0.09-0.24,0.17-0.43,0.25c-0.19,0.08-0.41,0.14-0.66,0.2c-0.25,0.05-0.51,0.09-0.79,0.13c-0.28,0.03-0.55,0.05-0.83,0.05
		c-0.84,0-1.56-0.1-2.17-0.31c-0.6-0.21-1.1-0.53-1.48-0.95c-0.39-0.42-0.67-0.96-0.84-1.61c-0.17-0.65-0.26-1.42-0.26-2.3v-8.92
		h-2.27c-0.18,0-0.32-0.09-0.43-0.27c-0.11-0.18-0.16-0.48-0.16-0.88c0-0.21,0.01-0.4,0.04-0.54c0.03-0.15,0.07-0.27,0.12-0.36
		c0.05-0.1,0.11-0.16,0.19-0.2c0.08-0.04,0.17-0.06,0.26-0.06h2.26v-3.63c0-0.08,0.02-0.15,0.06-0.22c0.04-0.07,0.12-0.13,0.23-0.18
		s0.27-0.09,0.46-0.11c0.19-0.02,0.43-0.03,0.72-0.03c0.3,0,0.55,0.01,0.74,0.03c0.19,0.02,0.34,0.06,0.45,0.11
		c0.11,0.05,0.19,0.11,0.23,0.18c0.05,0.07,0.07,0.14,0.07,0.22v3.63h4.17c0.1,0,0.18,0.02,0.25,0.06c0.07,0.04,0.14,0.11,0.19,0.2
		c0.05,0.1,0.09,0.22,0.12,0.36s0.04,0.33,0.04,0.54c0,0.41-0.05,0.7-0.16,0.88c-0.11,0.18-0.25,0.27-0.43,0.27H74.8v8.51
		c0,1.05,0.17,1.85,0.5,2.38c0.33,0.54,0.92,0.81,1.78,0.81c0.28,0,0.52-0.03,0.74-0.08s0.41-0.1,0.58-0.16
		c0.17-0.06,0.31-0.11,0.43-0.16c0.12-0.05,0.23-0.08,0.32-0.08c0.06,0,0.12,0.01,0.17,0.04s0.1,0.08,0.13,0.16
		c0.03,0.08,0.06,0.19,0.08,0.32S79.57,32.9,79.57,33.1z"/>
	<path stroke="#020000" stroke-width="0.25" d="M95.29,34.24c0,0.14-0.05,0.24-0.14,0.31c-0.1,0.07-0.23,0.12-0.4,0.15
		s-0.42,0.05-0.74,0.05c-0.31,0-0.56-0.02-0.75-0.05c-0.19-0.03-0.32-0.08-0.41-0.15c-0.08-0.07-0.13-0.17-0.13-0.31v-1.53
		c-0.71,0.71-1.5,1.27-2.37,1.66c-0.87,0.4-1.8,0.59-2.77,0.59c-0.85,0-1.63-0.1-2.32-0.31s-1.28-0.51-1.77-0.91
		s-0.87-0.88-1.14-1.46c-0.27-0.58-0.41-1.23-0.41-1.97c0-0.86,0.19-1.6,0.56-2.24s0.91-1.16,1.61-1.58
		c0.7-0.42,1.55-0.73,2.56-0.94c1.01-0.21,2.15-0.31,3.41-0.31h2.24v-1.19c0-0.59-0.07-1.11-0.2-1.56
		c-0.13-0.45-0.35-0.83-0.64-1.13c-0.29-0.3-0.68-0.53-1.15-0.68c-0.47-0.15-1.05-0.23-1.73-0.23c-0.73,0-1.39,0.08-1.98,0.25
		s-1.09,0.34-1.53,0.54c-0.44,0.2-0.81,0.38-1.1,0.54c-0.29,0.16-0.51,0.25-0.66,0.25c-0.1,0-0.18-0.02-0.25-0.07
		c-0.07-0.04-0.14-0.11-0.19-0.2c-0.05-0.09-0.09-0.21-0.12-0.35c-0.02-0.14-0.04-0.3-0.04-0.47c0-0.28,0.02-0.51,0.06-0.67
		c0.04-0.16,0.14-0.32,0.31-0.47c0.16-0.15,0.44-0.32,0.84-0.52c0.4-0.2,0.85-0.38,1.37-0.54c0.52-0.16,1.08-0.3,1.7-0.41
		s1.23-0.16,1.86-0.16c1.17,0,2.16,0.12,2.98,0.37s1.48,0.61,1.99,1.09s0.87,1.08,1.1,1.79c0.23,0.71,0.34,1.54,0.34,2.49V34.24z
		 M92.33,27.27h-2.54c-0.82,0-1.53,0.07-2.13,0.2c-0.6,0.13-1.1,0.32-1.5,0.58c-0.4,0.25-0.69,0.56-0.88,0.92
		C85.09,29.31,85,29.72,85,30.19c0,0.79,0.27,1.42,0.8,1.89c0.54,0.47,1.28,0.7,2.25,0.7c0.78,0,1.51-0.19,2.17-0.56
		c0.67-0.37,1.37-0.94,2.1-1.71V27.27z"/>
	<path stroke="#020000" stroke-width="0.25" d="M124.85,34.22c0,0.09-0.02,0.17-0.07,0.23c-0.05,0.06-0.13,0.12-0.23,0.16
		s-0.26,0.08-0.45,0.1c-0.19,0.02-0.43,0.03-0.72,0.03c-0.3,0-0.55-0.01-0.74-0.03c-0.19-0.02-0.35-0.06-0.46-0.1
		c-0.11-0.04-0.2-0.1-0.24-0.16c-0.05-0.06-0.07-0.14-0.07-0.23v-9.27c0-0.64-0.06-1.23-0.18-1.76c-0.12-0.53-0.31-0.99-0.58-1.37
		c-0.27-0.38-0.6-0.68-1.01-0.88c-0.41-0.2-0.89-0.31-1.44-0.31c-0.69,0-1.37,0.25-2.07,0.75s-1.45,1.23-2.28,2.19v10.67
		c0,0.09-0.02,0.17-0.07,0.23c-0.05,0.06-0.13,0.12-0.24,0.16s-0.27,0.08-0.46,0.1c-0.19,0.02-0.43,0.03-0.72,0.03
		c-0.28,0-0.51-0.01-0.71-0.03c-0.2-0.02-0.35-0.06-0.47-0.1s-0.19-0.1-0.23-0.16c-0.04-0.06-0.06-0.14-0.06-0.23v-9.27
		c0-0.64-0.07-1.23-0.2-1.76c-0.13-0.53-0.33-0.99-0.6-1.37c-0.26-0.38-0.6-0.68-1-0.88c-0.4-0.2-0.88-0.31-1.43-0.31
		c-0.69,0-1.38,0.25-2.08,0.75s-1.46,1.23-2.27,2.19v10.67c0,0.09-0.02,0.17-0.07,0.23c-0.05,0.06-0.13,0.12-0.23,0.16
		s-0.26,0.08-0.45,0.1c-0.19,0.02-0.44,0.03-0.74,0.03c-0.29,0-0.53-0.01-0.72-0.03c-0.19-0.02-0.35-0.06-0.46-0.1
		c-0.11-0.04-0.19-0.1-0.23-0.16c-0.04-0.06-0.06-0.14-0.06-0.23V18.96c0-0.09,0.02-0.17,0.05-0.23s0.11-0.12,0.22-0.17
		c0.11-0.05,0.25-0.08,0.42-0.1s0.39-0.03,0.67-0.03c0.26,0,0.48,0.01,0.66,0.03c0.17,0.02,0.31,0.05,0.41,0.1
		c0.1,0.05,0.17,0.11,0.21,0.17c0.04,0.06,0.06,0.14,0.06,0.23v2.02c0.91-0.96,1.8-1.66,2.66-2.11c0.86-0.45,1.73-0.67,2.61-0.67
		c0.67,0,1.28,0.07,1.81,0.22c0.54,0.15,1.01,0.35,1.42,0.62c0.41,0.27,0.76,0.58,1.05,0.95c0.29,0.37,0.53,0.78,0.72,1.23
		c0.54-0.55,1.06-1.02,1.54-1.41s0.96-0.7,1.41-0.93s0.89-0.41,1.32-0.52c0.43-0.11,0.86-0.16,1.29-0.16c1.05,0,1.92,0.17,2.63,0.52
		c0.71,0.34,1.28,0.81,1.72,1.38c0.44,0.58,0.75,1.25,0.94,2.03s0.28,1.59,0.28,2.45V34.22z"/>
	<path stroke="#020000" stroke-width="0.25" d="M145.22,26.35c0,1.33-0.15,2.53-0.46,3.59c-0.31,1.06-0.76,1.96-1.35,2.71
		c-0.6,0.74-1.33,1.31-2.21,1.71c-0.88,0.4-1.88,0.6-3.01,0.6c-0.48,0-0.93-0.04-1.34-0.14s-0.81-0.23-1.2-0.42
		s-0.78-0.44-1.16-0.73c-0.39-0.29-0.79-0.64-1.23-1.03v7.63c0,0.09-0.02,0.17-0.07,0.24c-0.05,0.07-0.13,0.12-0.23,0.17
		s-0.26,0.08-0.45,0.1s-0.44,0.03-0.74,0.03c-0.29,0-0.53-0.01-0.72-0.03s-0.35-0.06-0.46-0.1c-0.11-0.04-0.19-0.1-0.23-0.17
		c-0.04-0.07-0.06-0.15-0.06-0.24V18.96c0-0.1,0.02-0.18,0.05-0.25c0.04-0.06,0.11-0.12,0.22-0.16c0.11-0.04,0.25-0.08,0.42-0.09
		s0.37-0.03,0.61-0.03c0.25,0,0.46,0.01,0.62,0.03s0.3,0.05,0.41,0.09c0.11,0.05,0.18,0.1,0.23,0.16c0.04,0.06,0.06,0.14,0.06,0.25
		v2.05c0.49-0.47,0.97-0.89,1.43-1.24c0.46-0.35,0.92-0.64,1.38-0.87c0.46-0.23,0.94-0.41,1.43-0.53c0.49-0.12,1-0.18,1.54-0.18
		c1.18,0,2.18,0.21,3.01,0.64c0.83,0.43,1.51,1.02,2.03,1.76s0.91,1.61,1.15,2.6C145.1,24.2,145.22,25.25,145.22,26.35z
		 M142.13,26.68c0-0.78-0.06-1.53-0.19-2.26c-0.13-0.73-0.35-1.38-0.65-1.94c-0.31-0.57-0.72-1.02-1.24-1.36
		c-0.52-0.34-1.17-0.51-1.94-0.51c-0.39,0-0.77,0.05-1.14,0.16s-0.76,0.28-1.14,0.51c-0.39,0.23-0.79,0.54-1.22,0.92
		c-0.42,0.38-0.87,0.85-1.34,1.4v6.07c0.82,0.94,1.6,1.66,2.34,2.15c0.74,0.5,1.51,0.75,2.32,0.75c0.75,0,1.4-0.17,1.93-0.51
		c0.54-0.34,0.97-0.79,1.31-1.36c0.33-0.56,0.58-1.2,0.74-1.9S142.13,27.39,142.13,26.68z"/>
	<path stroke="#020000" stroke-width="0.25" d="M159.71,30.07c0,0.78-0.15,1.48-0.46,2.09c-0.31,0.61-0.74,1.13-1.31,1.54
		c-0.57,0.42-1.24,0.73-2.02,0.95s-1.64,0.32-2.58,0.32c-0.58,0-1.13-0.04-1.65-0.13c-0.52-0.08-0.99-0.19-1.41-0.32
		s-0.77-0.27-1.06-0.41c-0.29-0.14-0.5-0.27-0.63-0.38c-0.13-0.11-0.23-0.27-0.29-0.47c-0.06-0.2-0.09-0.48-0.09-0.83
		c0-0.21,0.01-0.4,0.04-0.54c0.02-0.15,0.05-0.27,0.09-0.36c0.04-0.09,0.09-0.16,0.15-0.19c0.07-0.04,0.14-0.06,0.23-0.06
		c0.13,0,0.33,0.08,0.59,0.23s0.58,0.32,0.96,0.5c0.38,0.18,0.83,0.35,1.34,0.5c0.52,0.15,1.11,0.23,1.79,0.23
		c0.5,0,0.96-0.05,1.37-0.15s0.76-0.25,1.06-0.45c0.3-0.2,0.53-0.45,0.7-0.75c0.16-0.31,0.24-0.67,0.24-1.08
		c0-0.43-0.12-0.79-0.35-1.09c-0.23-0.29-0.54-0.55-0.93-0.78c-0.38-0.23-0.82-0.43-1.3-0.6c-0.48-0.17-0.98-0.36-1.49-0.55
		c-0.51-0.19-1.01-0.41-1.5-0.65c-0.49-0.24-0.92-0.54-1.31-0.89c-0.39-0.35-0.7-0.77-0.93-1.25c-0.23-0.49-0.35-1.07-0.35-1.75
		c0-0.6,0.12-1.17,0.37-1.72c0.25-0.55,0.62-1.03,1.11-1.44c0.49-0.41,1.11-0.74,1.85-0.99s1.6-0.37,2.59-0.37
		c0.43,0,0.87,0.03,1.3,0.1c0.43,0.07,0.82,0.15,1.17,0.25c0.35,0.1,0.65,0.21,0.89,0.33c0.25,0.12,0.43,0.22,0.56,0.31
		c0.13,0.09,0.21,0.17,0.25,0.24s0.07,0.14,0.09,0.23c0.02,0.08,0.04,0.19,0.05,0.31c0.02,0.12,0.03,0.28,0.03,0.46
		c0,0.19-0.01,0.36-0.03,0.5c-0.02,0.14-0.05,0.26-0.09,0.35c-0.04,0.09-0.09,0.16-0.15,0.19c-0.06,0.04-0.13,0.06-0.2,0.06
		c-0.11,0-0.26-0.06-0.47-0.19c-0.21-0.12-0.47-0.26-0.79-0.4c-0.32-0.14-0.71-0.27-1.15-0.4s-0.94-0.19-1.51-0.19
		c-0.51,0-0.95,0.05-1.34,0.16c-0.38,0.11-0.7,0.26-0.95,0.46c-0.25,0.2-0.43,0.43-0.56,0.7c-0.13,0.27-0.19,0.57-0.19,0.88
		c0,0.44,0.12,0.81,0.36,1.11c0.24,0.3,0.55,0.56,0.94,0.79c0.38,0.23,0.82,0.43,1.32,0.61s1,0.37,1.51,0.56
		c0.51,0.19,1.02,0.41,1.52,0.64s0.94,0.53,1.33,0.86c0.38,0.34,0.69,0.75,0.93,1.22S159.71,29.41,159.71,30.07z"/>
	<path stroke="#020000" stroke-width="0.25" d="M183.88,23.42c0,1.77-0.22,3.37-0.67,4.8c-0.45,1.42-1.11,2.64-1.99,3.64
		c-0.88,1-1.99,1.77-3.33,2.31c-1.33,0.54-2.89,0.81-4.67,0.81c-1.76,0-3.28-0.25-4.56-0.74c-1.28-0.49-2.34-1.21-3.18-2.15
		c-0.84-0.94-1.46-2.1-1.87-3.49S163,25.6,163,23.79c0-1.73,0.22-3.3,0.67-4.71s1.11-2.61,2-3.6c0.89-0.99,2-1.75,3.34-2.29
		c1.34-0.54,2.89-0.81,4.67-0.81c1.72,0,3.22,0.24,4.49,0.73c1.28,0.49,2.34,1.2,3.19,2.13c0.85,0.93,1.48,2.09,1.89,3.46
		C183.67,20.07,183.88,21.65,183.88,23.42z M180.59,23.62c0-1.24-0.12-2.4-0.35-3.47c-0.23-1.07-0.62-2-1.17-2.78
		s-1.28-1.4-2.19-1.84s-2.04-0.66-3.39-0.66c-1.35,0-2.48,0.24-3.39,0.71c-0.91,0.47-1.66,1.11-2.23,1.9
		c-0.57,0.79-0.98,1.72-1.23,2.77c-0.25,1.06-0.37,2.17-0.37,3.33c0,1.29,0.11,2.48,0.34,3.56c0.23,1.09,0.61,2.02,1.15,2.81
		c0.54,0.79,1.26,1.4,2.17,1.83c0.91,0.44,2.05,0.65,3.42,0.65c1.36,0,2.5-0.24,3.42-0.71c0.93-0.48,1.67-1.12,2.24-1.92
		c0.56-0.81,0.97-1.74,1.21-2.81C180.47,25.94,180.59,24.81,180.59,23.62z"/>
	<path stroke="#020000" stroke-width="0.25" d="M202.43,34.22c0,0.09-0.02,0.17-0.07,0.23c-0.05,0.06-0.13,0.12-0.23,0.16
		s-0.26,0.08-0.45,0.1c-0.19,0.02-0.43,0.03-0.72,0.03c-0.3,0-0.55-0.01-0.74-0.03c-0.19-0.02-0.34-0.06-0.45-0.1
		s-0.19-0.1-0.23-0.16c-0.05-0.06-0.07-0.14-0.07-0.23v-8.94c0-0.87-0.07-1.57-0.22-2.1c-0.14-0.53-0.35-0.99-0.63-1.37
		c-0.28-0.38-0.63-0.68-1.07-0.88c-0.44-0.2-0.95-0.31-1.52-0.31c-0.75,0-1.49,0.25-2.24,0.75s-1.53,1.23-2.35,2.19v10.67
		c0,0.09-0.02,0.17-0.07,0.23c-0.05,0.06-0.13,0.12-0.24,0.16c-0.11,0.04-0.26,0.08-0.45,0.1c-0.19,0.02-0.44,0.03-0.74,0.03
		c-0.29,0-0.53-0.01-0.72-0.03c-0.19-0.02-0.35-0.06-0.46-0.1s-0.19-0.1-0.23-0.16c-0.04-0.06-0.06-0.14-0.06-0.23V18.96
		c0-0.09,0.02-0.17,0.05-0.23s0.11-0.12,0.22-0.17c0.11-0.05,0.25-0.08,0.42-0.1c0.17-0.02,0.39-0.03,0.67-0.03
		c0.26,0,0.48,0.01,0.66,0.03c0.17,0.02,0.31,0.05,0.41,0.1c0.1,0.05,0.17,0.11,0.21,0.17s0.06,0.14,0.06,0.23v2.02
		c0.91-0.96,1.83-1.66,2.73-2.11c0.91-0.45,1.83-0.67,2.75-0.67c1.08,0,1.99,0.17,2.73,0.52c0.74,0.34,1.34,0.81,1.79,1.38
		c0.46,0.58,0.79,1.25,0.98,2.03c0.2,0.77,0.3,1.7,0.3,2.79V34.22z"/>
	<path stroke="#020000" stroke-width="0.25" d="M210.84,34.22c0,0.09-0.02,0.17-0.07,0.23c-0.05,0.06-0.13,0.12-0.24,0.16
		c-0.11,0.04-0.26,0.08-0.45,0.1c-0.19,0.02-0.44,0.03-0.74,0.03c-0.29,0-0.53-0.01-0.72-0.03c-0.19-0.02-0.35-0.06-0.46-0.1
		s-0.19-0.1-0.23-0.16c-0.04-0.06-0.06-0.14-0.06-0.23V11.57c0-0.09,0.02-0.17,0.06-0.24s0.12-0.12,0.23-0.17
		c0.11-0.05,0.27-0.08,0.46-0.1c0.19-0.02,0.43-0.03,0.72-0.03c0.3,0,0.55,0.01,0.74,0.03c0.19,0.02,0.34,0.06,0.45,0.1
		c0.11,0.04,0.19,0.1,0.24,0.17c0.05,0.07,0.07,0.15,0.07,0.24V34.22z"/>
	<path stroke="#020000" stroke-width="0.25" d="M219.66,13.81c0,0.66-0.13,1.1-0.4,1.34s-0.75,0.36-1.46,0.36
		c-0.7,0-1.18-0.12-1.43-0.35c-0.26-0.23-0.39-0.67-0.39-1.31c0-0.66,0.13-1.1,0.4-1.34s0.75-0.36,1.46-0.36
		c0.7,0,1.18,0.12,1.43,0.35C219.53,12.72,219.66,13.16,219.66,13.81z M219.32,34.22c0,0.09-0.02,0.17-0.07,0.23
		c-0.05,0.06-0.13,0.12-0.24,0.16c-0.11,0.04-0.26,0.08-0.45,0.1c-0.19,0.02-0.44,0.03-0.74,0.03c-0.29,0-0.53-0.01-0.72-0.03
		c-0.19-0.02-0.35-0.06-0.46-0.1s-0.19-0.1-0.23-0.16c-0.04-0.06-0.06-0.14-0.06-0.23V18.96c0-0.08,0.02-0.15,0.06-0.22
		s0.12-0.12,0.23-0.17c0.11-0.04,0.27-0.08,0.46-0.1c0.19-0.02,0.43-0.03,0.72-0.03c0.3,0,0.55,0.01,0.74,0.03
		c0.19,0.02,0.34,0.06,0.45,0.1c0.11,0.05,0.19,0.1,0.24,0.17c0.05,0.07,0.07,0.14,0.07,0.22V34.22z"/>
	<path stroke="#020000" stroke-width="0.25" d="M238.81,34.22c0,0.09-0.02,0.17-0.07,0.23c-0.05,0.06-0.13,0.12-0.23,0.16
		s-0.26,0.08-0.45,0.1c-0.19,0.02-0.43,0.03-0.72,0.03c-0.3,0-0.55-0.01-0.74-0.03c-0.19-0.02-0.34-0.06-0.45-0.1
		s-0.19-0.1-0.23-0.16c-0.05-0.06-0.07-0.14-0.07-0.23v-8.94c0-0.87-0.07-1.57-0.22-2.1c-0.14-0.53-0.35-0.99-0.63-1.37
		c-0.28-0.38-0.63-0.68-1.07-0.88c-0.44-0.2-0.95-0.31-1.52-0.31c-0.75,0-1.49,0.25-2.24,0.75s-1.53,1.23-2.35,2.19v10.67
		c0,0.09-0.02,0.17-0.07,0.23c-0.05,0.06-0.13,0.12-0.24,0.16c-0.11,0.04-0.26,0.08-0.45,0.1c-0.19,0.02-0.44,0.03-0.74,0.03
		c-0.29,0-0.53-0.01-0.72-0.03c-0.19-0.02-0.35-0.06-0.46-0.1s-0.19-0.1-0.23-0.16c-0.04-0.06-0.06-0.14-0.06-0.23V18.96
		c0-0.09,0.02-0.17,0.05-0.23s0.11-0.12,0.22-0.17c0.11-0.05,0.25-0.08,0.42-0.1c0.17-0.02,0.39-0.03,0.67-0.03
		c0.26,0,0.48,0.01,0.66,0.03c0.17,0.02,0.31,0.05,0.41,0.1c0.1,0.05,0.17,0.11,0.21,0.17s0.06,0.14,0.06,0.23v2.02
		c0.91-0.96,1.83-1.66,2.73-2.11c0.91-0.45,1.83-0.67,2.75-0.67c1.08,0,1.99,0.17,2.73,0.52c0.74,0.34,1.34,0.81,1.79,1.38
		c0.46,0.58,0.79,1.25,0.98,2.03c0.2,0.77,0.3,1.7,0.3,2.79V34.22z"/>
	<path stroke="#020000" stroke-width="0.25" d="M258.1,25.93c0,0.44-0.12,0.75-0.35,0.94s-0.5,0.28-0.81,0.28h-10.7
		c0,0.85,0.09,1.61,0.27,2.29c0.18,0.68,0.48,1.26,0.91,1.75c0.42,0.49,0.97,0.86,1.65,1.12c0.68,0.26,1.51,0.39,2.49,0.39
		c0.77,0,1.46-0.06,2.07-0.18c0.61-0.12,1.13-0.25,1.57-0.4s0.8-0.28,1.09-0.4c0.28-0.12,0.5-0.18,0.64-0.18
		c0.08,0,0.16,0.02,0.23,0.06c0.07,0.04,0.12,0.1,0.15,0.18s0.06,0.19,0.08,0.33c0.02,0.14,0.03,0.31,0.03,0.52
		c0,0.15-0.01,0.27-0.02,0.38c-0.01,0.11-0.03,0.2-0.04,0.29c-0.02,0.08-0.05,0.16-0.09,0.23c-0.04,0.07-0.1,0.13-0.16,0.2
		c-0.07,0.06-0.26,0.16-0.59,0.3c-0.33,0.14-0.75,0.28-1.26,0.42s-1.12,0.26-1.8,0.36s-1.4,0.16-2.17,0.16
		c-1.34,0-2.51-0.18-3.51-0.53c-1-0.35-1.85-0.87-2.54-1.56s-1.2-1.55-1.55-2.59c-0.35-1.04-0.52-2.25-0.52-3.63
		c0-1.31,0.18-2.49,0.54-3.54s0.88-1.93,1.56-2.66c0.68-0.73,1.5-1.29,2.46-1.68s2.04-0.58,3.23-0.58c1.28,0,2.36,0.19,3.26,0.58
		c0.9,0.38,1.63,0.9,2.21,1.55c0.58,0.65,1,1.41,1.27,2.29s0.41,1.81,0.41,2.81V25.93z M255.11,25.1c0.04-1.47-0.31-2.62-1.04-3.46
		c-0.73-0.84-1.82-1.25-3.26-1.25c-0.74,0-1.39,0.13-1.94,0.39c-0.56,0.26-1.02,0.6-1.4,1.03c-0.38,0.43-0.67,0.93-0.87,1.5
		s-0.32,1.17-0.34,1.79H255.11z"/>
	<path stroke="#020000" stroke-width="0.25" d="M263.68,33.58c0,0.46-0.08,0.77-0.24,0.93s-0.46,0.23-0.89,0.23
		c-0.42,0-0.71-0.08-0.87-0.22c-0.16-0.15-0.24-0.45-0.24-0.9c0-0.46,0.08-0.77,0.25-0.93c0.16-0.15,0.46-0.23,0.89-0.23
		c0.42,0,0.7,0.08,0.86,0.22C263.61,32.83,263.68,33.13,263.68,33.58z"/>
	<path stroke="#020000" stroke-width="0.25" d="M268.77,22.62c0,0.38-0.08,0.64-0.23,0.77c-0.15,0.14-0.43,0.21-0.84,0.21
		c-0.4,0-0.68-0.07-0.83-0.2s-0.22-0.39-0.22-0.76c0-0.38,0.08-0.64,0.23-0.77c0.15-0.14,0.43-0.21,0.84-0.21
		c0.4,0,0.68,0.07,0.83,0.2C268.69,21.99,268.77,22.24,268.77,22.62z M268.57,34.4c0,0.05-0.01,0.1-0.04,0.13
		c-0.03,0.04-0.07,0.07-0.14,0.09s-0.15,0.05-0.26,0.06c-0.11,0.01-0.25,0.02-0.43,0.02c-0.17,0-0.31-0.01-0.42-0.02
		s-0.2-0.03-0.27-0.06c-0.07-0.03-0.11-0.06-0.13-0.09c-0.02-0.04-0.04-0.08-0.04-0.13v-8.81c0-0.05,0.01-0.09,0.04-0.13
		c0.02-0.04,0.07-0.07,0.13-0.1c0.07-0.03,0.15-0.05,0.27-0.06s0.25-0.02,0.42-0.02c0.17,0,0.32,0.01,0.43,0.02
		c0.11,0.01,0.2,0.03,0.26,0.06c0.06,0.03,0.11,0.06,0.14,0.1c0.03,0.04,0.04,0.08,0.04,0.13V34.4z"/>
	<path stroke="#020000" stroke-width="0.25" d="M279.82,34.4c0,0.05-0.01,0.1-0.04,0.13c-0.03,0.04-0.07,0.07-0.13,0.09
		s-0.15,0.05-0.26,0.06s-0.25,0.02-0.42,0.02c-0.17,0-0.32-0.01-0.43-0.02c-0.11-0.01-0.2-0.03-0.26-0.06s-0.11-0.06-0.14-0.09
		c-0.03-0.04-0.04-0.08-0.04-0.13v-5.16c0-0.5-0.04-0.91-0.13-1.21c-0.08-0.31-0.21-0.57-0.37-0.79c-0.16-0.22-0.37-0.39-0.62-0.51
		c-0.25-0.12-0.55-0.18-0.88-0.18c-0.43,0-0.86,0.14-1.29,0.43s-0.88,0.71-1.35,1.26v6.16c0,0.05-0.01,0.1-0.04,0.13
		c-0.03,0.04-0.07,0.07-0.14,0.09s-0.15,0.05-0.26,0.06c-0.11,0.01-0.25,0.02-0.43,0.02c-0.17,0-0.31-0.01-0.42-0.02
		s-0.2-0.03-0.27-0.06c-0.07-0.03-0.11-0.06-0.13-0.09c-0.02-0.04-0.04-0.08-0.04-0.13v-8.81c0-0.05,0.01-0.1,0.03-0.13
		c0.02-0.04,0.06-0.07,0.13-0.1s0.14-0.05,0.24-0.06c0.1-0.01,0.23-0.01,0.38-0.01c0.15,0,0.28,0,0.38,0.01s0.18,0.03,0.23,0.06
		s0.09,0.06,0.12,0.1c0.02,0.04,0.04,0.08,0.04,0.13v1.17c0.53-0.55,1.05-0.96,1.58-1.22s1.05-0.39,1.59-0.39
		c0.63,0,1.15,0.1,1.58,0.3c0.43,0.2,0.77,0.47,1.04,0.8c0.26,0.33,0.45,0.72,0.57,1.17c0.11,0.45,0.17,0.98,0.17,1.61V34.4z"/>
</g>
<g>
	<path fill="#020202" d="M126.28,50.58c0,0.03-0.01,0.05-0.02,0.08c-0.01,0.02-0.04,0.04-0.07,0.05c-0.04,0.01-0.09,0.03-0.16,0.03
		c-0.07,0.01-0.16,0.01-0.27,0.01c-0.1,0-0.18,0-0.24-0.01c-0.06-0.01-0.11-0.02-0.15-0.04c-0.04-0.02-0.07-0.04-0.09-0.07
		c-0.02-0.03-0.04-0.07-0.05-0.11l-0.67-1.68c-0.08-0.19-0.16-0.36-0.24-0.52c-0.08-0.16-0.18-0.3-0.3-0.41
		c-0.12-0.12-0.25-0.2-0.41-0.27c-0.16-0.06-0.34-0.1-0.56-0.1h-0.64v3.03c0,0.03-0.01,0.05-0.03,0.08
		c-0.02,0.02-0.04,0.04-0.08,0.05s-0.08,0.02-0.15,0.03c-0.06,0.01-0.14,0.01-0.23,0.01s-0.17,0-0.23-0.01
		c-0.06-0.01-0.11-0.02-0.15-0.03s-0.06-0.03-0.08-0.05c-0.01-0.02-0.02-0.05-0.02-0.08V44c0-0.14,0.04-0.24,0.11-0.3
		c0.08-0.06,0.16-0.09,0.24-0.09h1.54c0.18,0,0.33,0,0.46,0.01c0.12,0.01,0.23,0.02,0.33,0.03c0.28,0.05,0.53,0.12,0.74,0.23
		c0.21,0.1,0.39,0.23,0.54,0.39c0.15,0.16,0.25,0.34,0.33,0.54c0.07,0.2,0.11,0.43,0.11,0.67c0,0.24-0.03,0.45-0.1,0.64
		c-0.07,0.19-0.16,0.36-0.28,0.5c-0.12,0.14-0.27,0.27-0.44,0.38c-0.17,0.11-0.36,0.2-0.58,0.27c0.12,0.05,0.23,0.12,0.32,0.2
		c0.1,0.08,0.19,0.17,0.27,0.28c0.08,0.11,0.16,0.24,0.24,0.38c0.07,0.14,0.15,0.3,0.22,0.48l0.65,1.57
		c0.05,0.13,0.09,0.23,0.1,0.28C126.28,50.51,126.28,50.55,126.28,50.58z M124.84,45.59c0-0.28-0.06-0.51-0.19-0.71
		c-0.13-0.19-0.34-0.33-0.64-0.41c-0.09-0.03-0.2-0.04-0.32-0.05s-0.27-0.02-0.46-0.02h-0.81v2.4h0.94c0.25,0,0.47-0.03,0.66-0.09
		c0.18-0.06,0.34-0.14,0.46-0.25c0.12-0.11,0.21-0.24,0.27-0.38C124.81,45.92,124.84,45.76,124.84,45.59z"/>
	<path fill="#020202" d="M131.66,47.9c0,0.14-0.04,0.24-0.11,0.31c-0.07,0.06-0.16,0.09-0.25,0.09h-3.31c0,0.27,0.03,0.52,0.08,0.74
		c0.06,0.22,0.15,0.41,0.28,0.57c0.13,0.16,0.3,0.28,0.51,0.36c0.21,0.08,0.47,0.13,0.77,0.13c0.24,0,0.45-0.02,0.64-0.06
		c0.19-0.04,0.35-0.08,0.49-0.13s0.25-0.09,0.34-0.13c0.09-0.04,0.15-0.06,0.2-0.06c0.03,0,0.05,0.01,0.07,0.02
		c0.02,0.01,0.04,0.03,0.05,0.06c0.01,0.03,0.02,0.06,0.03,0.11c0.01,0.05,0.01,0.1,0.01,0.17c0,0.05,0,0.09-0.01,0.12
		c0,0.03-0.01,0.07-0.01,0.09c-0.01,0.03-0.01,0.05-0.03,0.07s-0.03,0.04-0.05,0.06c-0.02,0.02-0.08,0.05-0.18,0.1
		s-0.23,0.09-0.39,0.13c-0.16,0.04-0.35,0.08-0.56,0.12c-0.21,0.03-0.44,0.05-0.67,0.05c-0.41,0-0.78-0.06-1.09-0.17
		c-0.31-0.11-0.57-0.28-0.78-0.51c-0.21-0.22-0.37-0.5-0.48-0.84c-0.11-0.34-0.16-0.73-0.16-1.18c0-0.42,0.06-0.81,0.17-1.15
		c0.11-0.34,0.27-0.63,0.48-0.86c0.21-0.24,0.46-0.42,0.76-0.54c0.3-0.13,0.63-0.19,1-0.19c0.39,0,0.73,0.06,1.01,0.19
		s0.51,0.29,0.68,0.5c0.18,0.21,0.31,0.46,0.39,0.74c0.08,0.28,0.13,0.59,0.13,0.91V47.9z M130.73,47.63
		c0.01-0.48-0.1-0.85-0.32-1.12c-0.23-0.27-0.56-0.41-1.01-0.41c-0.23,0-0.43,0.04-0.6,0.13c-0.17,0.08-0.32,0.2-0.43,0.34
		c-0.12,0.14-0.21,0.3-0.27,0.49c-0.06,0.19-0.1,0.38-0.11,0.58H130.73z"/>
	<path fill="#020202" d="M137.39,50.59c0,0.03-0.01,0.05-0.02,0.07c-0.01,0.02-0.04,0.04-0.07,0.05s-0.08,0.03-0.14,0.03
		c-0.06,0.01-0.13,0.01-0.22,0.01c-0.09,0-0.17,0-0.23-0.01c-0.06-0.01-0.11-0.02-0.14-0.03c-0.03-0.01-0.06-0.03-0.07-0.05
		c-0.01-0.02-0.02-0.04-0.02-0.07v-2.9c0-0.28-0.02-0.51-0.07-0.68c-0.04-0.17-0.11-0.32-0.2-0.45c-0.09-0.12-0.2-0.22-0.33-0.29
		c-0.14-0.07-0.29-0.1-0.47-0.1c-0.23,0-0.46,0.08-0.69,0.24c-0.23,0.16-0.47,0.4-0.73,0.71v3.46c0,0.03-0.01,0.05-0.02,0.07
		c-0.01,0.02-0.04,0.04-0.07,0.05c-0.03,0.01-0.08,0.03-0.14,0.03c-0.06,0.01-0.14,0.01-0.23,0.01c-0.09,0-0.16,0-0.22-0.01
		c-0.06-0.01-0.11-0.02-0.14-0.03s-0.06-0.03-0.07-0.05c-0.01-0.02-0.02-0.04-0.02-0.07v-4.95c0-0.03,0.01-0.05,0.02-0.07
		c0.01-0.02,0.03-0.04,0.07-0.05c0.03-0.02,0.08-0.03,0.13-0.03c0.05,0,0.12-0.01,0.21-0.01c0.08,0,0.15,0,0.2,0.01
		c0.05,0.01,0.1,0.02,0.13,0.03c0.03,0.02,0.05,0.03,0.06,0.05s0.02,0.04,0.02,0.07v0.65c0.28-0.31,0.57-0.54,0.85-0.68
		c0.28-0.14,0.56-0.22,0.85-0.22c0.33,0,0.62,0.06,0.85,0.17c0.23,0.11,0.41,0.26,0.56,0.45c0.14,0.19,0.24,0.41,0.3,0.66
		c0.06,0.25,0.09,0.55,0.09,0.9V50.59z"/>
	<path fill="#020202" d="M141.58,50.23c0,0.11-0.01,0.19-0.02,0.25c-0.01,0.06-0.04,0.11-0.07,0.14c-0.03,0.03-0.07,0.06-0.13,0.08
		s-0.13,0.05-0.2,0.06c-0.08,0.02-0.16,0.03-0.24,0.04c-0.09,0.01-0.17,0.02-0.26,0.02c-0.26,0-0.48-0.03-0.67-0.1
		c-0.19-0.07-0.34-0.17-0.46-0.31c-0.12-0.14-0.21-0.31-0.26-0.52c-0.05-0.21-0.08-0.46-0.08-0.74v-2.89h-0.7
		c-0.06,0-0.1-0.03-0.13-0.09c-0.03-0.06-0.05-0.15-0.05-0.29c0-0.07,0-0.13,0.01-0.18c0.01-0.05,0.02-0.09,0.04-0.12
		c0.01-0.03,0.03-0.05,0.06-0.07s0.05-0.02,0.08-0.02h0.7v-1.18c0-0.03,0.01-0.05,0.02-0.07c0.01-0.02,0.04-0.04,0.07-0.06
		c0.04-0.02,0.08-0.03,0.14-0.04c0.06-0.01,0.13-0.01,0.22-0.01c0.09,0,0.17,0,0.23,0.01c0.06,0.01,0.11,0.02,0.14,0.04
		c0.03,0.02,0.06,0.04,0.07,0.06c0.01,0.02,0.02,0.05,0.02,0.07v1.18h1.29c0.03,0,0.06,0.01,0.08,0.02s0.04,0.03,0.06,0.07
		c0.02,0.03,0.03,0.07,0.04,0.12s0.01,0.11,0.01,0.18c0,0.13-0.02,0.23-0.05,0.29c-0.03,0.06-0.08,0.09-0.13,0.09h-1.29v2.76
		c0,0.34,0.05,0.6,0.15,0.77c0.1,0.17,0.29,0.26,0.55,0.26c0.09,0,0.16-0.01,0.23-0.02c0.07-0.02,0.13-0.03,0.18-0.05
		c0.05-0.02,0.1-0.04,0.13-0.05c0.04-0.02,0.07-0.02,0.1-0.02c0.02,0,0.04,0,0.05,0.01c0.02,0.01,0.03,0.03,0.04,0.05
		c0.01,0.03,0.02,0.06,0.02,0.11C141.58,50.11,141.58,50.16,141.58,50.23z"/>
	<path fill="#020202" d="M146.45,50.59c0,0.04-0.01,0.08-0.04,0.1s-0.07,0.04-0.12,0.05c-0.05,0.01-0.13,0.02-0.23,0.02
		c-0.1,0-0.17,0-0.23-0.02c-0.06-0.01-0.1-0.03-0.13-0.05c-0.03-0.02-0.04-0.06-0.04-0.1V50.1c-0.22,0.23-0.46,0.41-0.74,0.54
		c-0.27,0.13-0.56,0.19-0.86,0.19c-0.26,0-0.5-0.03-0.72-0.1c-0.21-0.07-0.4-0.17-0.55-0.29c-0.15-0.13-0.27-0.29-0.35-0.47
		c-0.08-0.19-0.12-0.4-0.12-0.64c0-0.28,0.06-0.52,0.17-0.73s0.28-0.38,0.5-0.51c0.22-0.13,0.48-0.24,0.79-0.3
		c0.31-0.07,0.66-0.1,1.06-0.1h0.69V47.3c0-0.19-0.02-0.36-0.06-0.51c-0.04-0.15-0.11-0.27-0.2-0.37c-0.09-0.1-0.21-0.17-0.35-0.22
		c-0.14-0.05-0.32-0.07-0.54-0.07c-0.23,0-0.43,0.03-0.61,0.08c-0.18,0.05-0.34,0.11-0.47,0.18c-0.14,0.06-0.25,0.12-0.34,0.18
		c-0.09,0.05-0.16,0.08-0.2,0.08c-0.03,0-0.06-0.01-0.08-0.02c-0.02-0.01-0.04-0.04-0.06-0.07c-0.02-0.03-0.03-0.07-0.04-0.11
		c-0.01-0.05-0.01-0.1-0.01-0.15c0-0.09,0.01-0.16,0.02-0.22c0.01-0.05,0.05-0.1,0.1-0.15c0.05-0.05,0.14-0.1,0.26-0.17
		c0.12-0.06,0.26-0.12,0.42-0.18c0.16-0.05,0.34-0.1,0.53-0.13c0.19-0.03,0.38-0.05,0.58-0.05c0.36,0,0.67,0.04,0.92,0.12
		c0.25,0.08,0.46,0.2,0.61,0.36c0.16,0.16,0.27,0.35,0.34,0.58c0.07,0.23,0.11,0.5,0.11,0.81V50.59z M145.53,48.34h-0.79
		c-0.25,0-0.47,0.02-0.66,0.06c-0.19,0.04-0.34,0.1-0.46,0.19c-0.12,0.08-0.21,0.18-0.27,0.3c-0.06,0.12-0.09,0.25-0.09,0.4
		c0,0.26,0.08,0.46,0.25,0.61c0.17,0.15,0.4,0.23,0.7,0.23c0.24,0,0.47-0.06,0.67-0.18c0.21-0.12,0.42-0.31,0.65-0.56V48.34z"/>
	<path fill="#020202" d="M149.06,50.59c0,0.03-0.01,0.05-0.02,0.07c-0.02,0.02-0.04,0.04-0.07,0.05c-0.03,0.01-0.08,0.03-0.14,0.03
		c-0.06,0.01-0.14,0.01-0.23,0.01c-0.09,0-0.16,0-0.22-0.01c-0.06-0.01-0.11-0.02-0.14-0.03c-0.04-0.01-0.06-0.03-0.07-0.05
		c-0.01-0.02-0.02-0.04-0.02-0.07v-7.34c0-0.03,0.01-0.05,0.02-0.08c0.01-0.02,0.04-0.04,0.07-0.06c0.04-0.01,0.08-0.03,0.14-0.03
		s0.13-0.01,0.22-0.01c0.09,0,0.17,0,0.23,0.01s0.11,0.02,0.14,0.03c0.03,0.01,0.06,0.03,0.07,0.06c0.01,0.02,0.02,0.05,0.02,0.08
		V50.59z"/>
	<path fill="#020202" d="M158.87,50.39c0.03,0.08,0.05,0.15,0.05,0.2c0,0.05-0.01,0.09-0.04,0.11c-0.03,0.03-0.08,0.04-0.15,0.05
		c-0.07,0.01-0.16,0.01-0.28,0.01c-0.12,0-0.21,0-0.28-0.01c-0.07-0.01-0.12-0.01-0.16-0.03s-0.06-0.03-0.08-0.05
		c-0.02-0.02-0.03-0.05-0.05-0.08l-0.62-1.73h-3.01l-0.59,1.71c-0.01,0.03-0.03,0.06-0.05,0.09c-0.02,0.02-0.05,0.04-0.08,0.06
		c-0.04,0.02-0.09,0.03-0.15,0.04c-0.07,0.01-0.15,0.01-0.25,0.01c-0.11,0-0.2,0-0.27-0.01c-0.07-0.01-0.12-0.03-0.14-0.05
		s-0.04-0.06-0.04-0.11s0.02-0.11,0.05-0.2l2.42-6.6c0.01-0.04,0.03-0.07,0.06-0.1c0.02-0.03,0.06-0.05,0.11-0.06
		c0.05-0.01,0.11-0.02,0.18-0.03c0.07,0,0.16-0.01,0.28-0.01c0.12,0,0.22,0,0.3,0.01c0.08,0.01,0.14,0.02,0.19,0.03
		c0.05,0.01,0.09,0.04,0.11,0.06c0.03,0.03,0.05,0.06,0.06,0.1L158.87,50.39z M155.76,44.56L155.76,44.56l-1.25,3.54h2.51
		L155.76,44.56z"/>
	<path fill="#020202" d="M164.18,45.87c0,0.13-0.02,0.22-0.05,0.28s-0.08,0.09-0.14,0.09h-0.72c0.13,0.13,0.22,0.28,0.27,0.44
		c0.05,0.16,0.08,0.33,0.08,0.5c0,0.29-0.05,0.54-0.14,0.76c-0.09,0.22-0.23,0.41-0.4,0.56c-0.17,0.15-0.38,0.27-0.62,0.35
		c-0.24,0.08-0.5,0.12-0.79,0.12c-0.2,0-0.4-0.03-0.58-0.08c-0.18-0.05-0.33-0.12-0.43-0.2c-0.07,0.07-0.12,0.14-0.16,0.23
		c-0.04,0.08-0.06,0.18-0.06,0.29c0,0.13,0.06,0.23,0.18,0.32c0.12,0.08,0.28,0.13,0.48,0.14l1.31,0.06
		c0.25,0.01,0.48,0.04,0.69,0.1c0.21,0.06,0.39,0.15,0.54,0.26c0.15,0.11,0.27,0.25,0.36,0.41c0.09,0.16,0.13,0.35,0.13,0.57
		c0,0.23-0.05,0.44-0.15,0.65c-0.1,0.2-0.25,0.38-0.44,0.54c-0.2,0.16-0.45,0.28-0.76,0.37c-0.31,0.09-0.67,0.13-1.1,0.13
		c-0.41,0-0.75-0.03-1.04-0.1c-0.29-0.07-0.52-0.16-0.7-0.28c-0.18-0.12-0.31-0.26-0.4-0.42c-0.08-0.16-0.12-0.34-0.12-0.53
		c0-0.12,0.01-0.24,0.05-0.35c0.03-0.11,0.07-0.22,0.14-0.32c0.06-0.1,0.14-0.2,0.23-0.29c0.09-0.09,0.2-0.19,0.32-0.28
		c-0.18-0.09-0.32-0.21-0.41-0.35c-0.09-0.14-0.13-0.29-0.13-0.45c0-0.22,0.05-0.42,0.14-0.6c0.09-0.18,0.21-0.33,0.35-0.47
		c-0.12-0.14-0.21-0.29-0.27-0.46c-0.07-0.17-0.1-0.38-0.1-0.62c0-0.28,0.05-0.53,0.14-0.76c0.1-0.22,0.23-0.41,0.4-0.57
		c0.17-0.15,0.38-0.27,0.62-0.36c0.24-0.08,0.5-0.12,0.78-0.12c0.15,0,0.3,0.01,0.43,0.02c0.13,0.02,0.26,0.04,0.37,0.07h1.52
		c0.06,0,0.11,0.03,0.14,0.09S164.18,45.74,164.18,45.87z M163.2,51.09c0-0.21-0.09-0.38-0.27-0.49c-0.18-0.12-0.42-0.18-0.72-0.18
		l-1.3-0.04c-0.12,0.09-0.22,0.18-0.29,0.26c-0.08,0.08-0.14,0.16-0.18,0.24c-0.05,0.08-0.08,0.15-0.09,0.22
		c-0.02,0.07-0.03,0.15-0.03,0.23c0,0.24,0.12,0.42,0.37,0.54c0.25,0.12,0.59,0.18,1.03,0.18c0.28,0,0.51-0.03,0.7-0.08
		c0.19-0.05,0.34-0.12,0.46-0.21c0.12-0.09,0.2-0.19,0.25-0.3C163.17,51.33,163.2,51.21,163.2,51.09z M162.73,47.17
		c0-0.34-0.09-0.6-0.28-0.79c-0.19-0.19-0.46-0.28-0.8-0.28c-0.18,0-0.33,0.03-0.47,0.09c-0.13,0.06-0.24,0.14-0.33,0.24
		c-0.09,0.1-0.15,0.22-0.2,0.36c-0.04,0.13-0.06,0.27-0.06,0.42c0,0.33,0.09,0.58,0.28,0.77c0.19,0.19,0.45,0.28,0.79,0.28
		c0.18,0,0.34-0.03,0.48-0.09c0.13-0.06,0.24-0.14,0.33-0.24c0.09-0.1,0.15-0.22,0.2-0.35C162.71,47.45,162.73,47.31,162.73,47.17z"
		/>
	<path fill="#020202" d="M168.3,45.97c0,0.08,0,0.15,0,0.2c0,0.05-0.01,0.1-0.02,0.13c-0.01,0.03-0.02,0.05-0.04,0.07
		c-0.02,0.02-0.04,0.02-0.07,0.02c-0.03,0-0.07-0.01-0.11-0.02s-0.09-0.03-0.15-0.05c-0.05-0.02-0.11-0.03-0.18-0.05
		c-0.07-0.01-0.14-0.02-0.22-0.02c-0.09,0-0.18,0.02-0.27,0.05s-0.18,0.1-0.28,0.18c-0.1,0.08-0.2,0.2-0.31,0.34
		c-0.11,0.14-0.23,0.31-0.36,0.51v3.25c0,0.03-0.01,0.05-0.02,0.07c-0.02,0.02-0.04,0.04-0.07,0.05s-0.08,0.03-0.14,0.03
		c-0.06,0.01-0.14,0.01-0.23,0.01c-0.09,0-0.16,0-0.22-0.01c-0.06-0.01-0.11-0.02-0.14-0.03s-0.06-0.03-0.07-0.05
		c-0.01-0.02-0.02-0.04-0.02-0.07v-4.95c0-0.03,0.01-0.05,0.02-0.07c0.01-0.02,0.03-0.04,0.07-0.05c0.03-0.02,0.08-0.03,0.13-0.03
		c0.05,0,0.12-0.01,0.21-0.01c0.08,0,0.15,0,0.2,0.01c0.05,0.01,0.1,0.02,0.13,0.03c0.03,0.02,0.05,0.03,0.06,0.05
		c0.01,0.02,0.02,0.04,0.02,0.07v0.72c0.14-0.2,0.27-0.36,0.39-0.48c0.12-0.12,0.23-0.22,0.34-0.29c0.11-0.07,0.22-0.12,0.32-0.15
		c0.11-0.03,0.21-0.04,0.32-0.04c0.05,0,0.1,0,0.16,0.01c0.06,0,0.13,0.02,0.19,0.03c0.07,0.01,0.13,0.03,0.18,0.05
		c0.05,0.02,0.09,0.04,0.12,0.06c0.02,0.02,0.04,0.04,0.04,0.05c0.01,0.02,0.01,0.04,0.02,0.06s0.01,0.06,0.01,0.11
		C168.3,45.82,168.3,45.88,168.3,45.97z"/>
	<path fill="#020202" d="M173.49,47.9c0,0.14-0.04,0.24-0.11,0.31c-0.07,0.06-0.16,0.09-0.25,0.09h-3.31c0,0.27,0.03,0.52,0.08,0.74
		c0.06,0.22,0.15,0.41,0.28,0.57c0.13,0.16,0.3,0.28,0.51,0.36s0.47,0.13,0.77,0.13c0.24,0,0.45-0.02,0.64-0.06
		c0.19-0.04,0.35-0.08,0.49-0.13c0.14-0.05,0.25-0.09,0.34-0.13c0.09-0.04,0.16-0.06,0.2-0.06c0.03,0,0.05,0.01,0.07,0.02
		c0.02,0.01,0.04,0.03,0.05,0.06c0.01,0.03,0.02,0.06,0.03,0.11c0.01,0.05,0.01,0.1,0.01,0.17c0,0.05,0,0.09-0.01,0.12
		s-0.01,0.07-0.01,0.09c-0.01,0.03-0.01,0.05-0.03,0.07c-0.01,0.02-0.03,0.04-0.05,0.06c-0.02,0.02-0.08,0.05-0.18,0.1
		s-0.23,0.09-0.39,0.13c-0.16,0.04-0.35,0.08-0.56,0.12c-0.21,0.03-0.44,0.05-0.67,0.05c-0.41,0-0.78-0.06-1.09-0.17
		c-0.31-0.11-0.57-0.28-0.78-0.51c-0.21-0.22-0.37-0.5-0.48-0.84c-0.11-0.34-0.16-0.73-0.16-1.18c0-0.42,0.06-0.81,0.17-1.15
		c0.11-0.34,0.27-0.63,0.48-0.86c0.21-0.24,0.46-0.42,0.76-0.54c0.3-0.13,0.63-0.19,1-0.19c0.39,0,0.73,0.06,1.01,0.19
		c0.28,0.12,0.51,0.29,0.68,0.5c0.18,0.21,0.31,0.46,0.39,0.74c0.08,0.28,0.13,0.59,0.13,0.91V47.9z M172.56,47.63
		c0.01-0.48-0.1-0.85-0.32-1.12c-0.23-0.27-0.56-0.41-1.01-0.41c-0.23,0-0.43,0.04-0.6,0.13c-0.17,0.08-0.32,0.2-0.43,0.34
		c-0.12,0.14-0.21,0.3-0.27,0.49c-0.06,0.19-0.1,0.38-0.11,0.58H172.56z"/>
	<path fill="#020202" d="M179.18,47.9c0,0.14-0.04,0.24-0.11,0.31c-0.07,0.06-0.16,0.09-0.25,0.09h-3.31c0,0.27,0.03,0.52,0.08,0.74
		c0.06,0.22,0.15,0.41,0.28,0.57c0.13,0.16,0.3,0.28,0.51,0.36s0.47,0.13,0.77,0.13c0.24,0,0.45-0.02,0.64-0.06
		c0.19-0.04,0.35-0.08,0.49-0.13c0.14-0.05,0.25-0.09,0.34-0.13c0.09-0.04,0.16-0.06,0.2-0.06c0.03,0,0.05,0.01,0.07,0.02
		c0.02,0.01,0.04,0.03,0.05,0.06c0.01,0.03,0.02,0.06,0.03,0.11s0.01,0.1,0.01,0.17c0,0.05,0,0.09-0.01,0.12
		c0,0.03-0.01,0.07-0.01,0.09c-0.01,0.03-0.01,0.05-0.03,0.07s-0.03,0.04-0.05,0.06c-0.02,0.02-0.08,0.05-0.18,0.1
		s-0.23,0.09-0.39,0.13c-0.16,0.04-0.35,0.08-0.56,0.12c-0.21,0.03-0.44,0.05-0.67,0.05c-0.41,0-0.78-0.06-1.09-0.17
		c-0.31-0.11-0.57-0.28-0.78-0.51c-0.21-0.22-0.37-0.5-0.48-0.84c-0.11-0.34-0.16-0.73-0.16-1.18c0-0.42,0.06-0.81,0.17-1.15
		c0.11-0.34,0.27-0.63,0.48-0.86c0.21-0.24,0.46-0.42,0.76-0.54c0.3-0.13,0.63-0.19,1-0.19c0.39,0,0.73,0.06,1.01,0.19
		c0.28,0.12,0.51,0.29,0.68,0.5c0.18,0.21,0.31,0.46,0.39,0.74c0.08,0.28,0.13,0.59,0.13,0.91V47.9z M178.25,47.63
		c0.01-0.48-0.1-0.85-0.32-1.12c-0.23-0.27-0.56-0.41-1.01-0.41c-0.23,0-0.43,0.04-0.6,0.13c-0.17,0.08-0.32,0.2-0.43,0.34
		c-0.12,0.14-0.21,0.3-0.27,0.49c-0.06,0.19-0.1,0.38-0.11,0.58H178.25z"/>
	<path fill="#020202" d="M188.04,50.59c0,0.03-0.01,0.05-0.02,0.07c-0.01,0.02-0.04,0.04-0.07,0.05c-0.03,0.01-0.08,0.03-0.14,0.03
		c-0.06,0.01-0.13,0.01-0.22,0.01c-0.09,0-0.17,0-0.23-0.01c-0.06-0.01-0.11-0.02-0.14-0.03s-0.06-0.03-0.08-0.05
		c-0.01-0.02-0.02-0.04-0.02-0.07v-3.01c0-0.21-0.02-0.4-0.06-0.57c-0.04-0.17-0.1-0.32-0.18-0.45c-0.08-0.12-0.19-0.22-0.31-0.29
		c-0.13-0.07-0.28-0.1-0.45-0.1c-0.21,0-0.43,0.08-0.64,0.24c-0.21,0.16-0.45,0.4-0.71,0.71v3.46c0,0.03-0.01,0.05-0.02,0.07
		c-0.02,0.02-0.04,0.04-0.08,0.05s-0.08,0.03-0.14,0.03c-0.06,0.01-0.13,0.01-0.22,0.01c-0.09,0-0.16,0-0.22-0.01
		c-0.06-0.01-0.11-0.02-0.15-0.03c-0.03-0.01-0.06-0.03-0.07-0.05c-0.01-0.02-0.02-0.04-0.02-0.07v-3.01c0-0.21-0.02-0.4-0.06-0.57
		c-0.04-0.17-0.1-0.32-0.18-0.45c-0.08-0.12-0.19-0.22-0.31-0.29c-0.12-0.07-0.27-0.1-0.44-0.1c-0.21,0-0.43,0.08-0.64,0.24
		c-0.22,0.16-0.45,0.4-0.7,0.71v3.46c0,0.03-0.01,0.05-0.02,0.07c-0.02,0.02-0.04,0.04-0.07,0.05c-0.03,0.01-0.08,0.03-0.14,0.03
		c-0.06,0.01-0.14,0.01-0.23,0.01c-0.09,0-0.16,0-0.22-0.01c-0.06-0.01-0.11-0.02-0.14-0.03s-0.06-0.03-0.07-0.05
		c-0.01-0.02-0.02-0.04-0.02-0.07v-4.95c0-0.03,0.01-0.05,0.02-0.07c0.01-0.02,0.03-0.04,0.07-0.05c0.03-0.02,0.08-0.03,0.13-0.03
		c0.05,0,0.12-0.01,0.21-0.01c0.08,0,0.15,0,0.2,0.01c0.05,0.01,0.1,0.02,0.13,0.03c0.03,0.02,0.05,0.03,0.06,0.05
		c0.01,0.02,0.02,0.04,0.02,0.07v0.65c0.28-0.31,0.56-0.54,0.82-0.68c0.27-0.14,0.54-0.22,0.81-0.22c0.21,0,0.4,0.02,0.56,0.07
		c0.17,0.05,0.31,0.11,0.44,0.2s0.23,0.19,0.32,0.31c0.09,0.12,0.16,0.25,0.22,0.4c0.17-0.18,0.33-0.33,0.48-0.46
		c0.15-0.12,0.3-0.23,0.44-0.3c0.14-0.08,0.28-0.13,0.41-0.17c0.13-0.03,0.27-0.05,0.4-0.05c0.32,0,0.6,0.06,0.82,0.17
		c0.22,0.11,0.4,0.26,0.53,0.45c0.14,0.19,0.23,0.41,0.29,0.66c0.06,0.25,0.09,0.52,0.09,0.79V50.59z"/>
	<path fill="#020202" d="M194.02,47.9c0,0.14-0.04,0.24-0.11,0.31c-0.07,0.06-0.16,0.09-0.25,0.09h-3.31c0,0.27,0.03,0.52,0.08,0.74
		c0.06,0.22,0.15,0.41,0.28,0.57c0.13,0.16,0.3,0.28,0.51,0.36s0.47,0.13,0.77,0.13c0.24,0,0.45-0.02,0.64-0.06
		c0.19-0.04,0.35-0.08,0.49-0.13c0.14-0.05,0.25-0.09,0.34-0.13c0.09-0.04,0.16-0.06,0.2-0.06c0.03,0,0.05,0.01,0.07,0.02
		c0.02,0.01,0.04,0.03,0.05,0.06c0.01,0.03,0.02,0.06,0.03,0.11s0.01,0.1,0.01,0.17c0,0.05,0,0.09-0.01,0.12
		c0,0.03-0.01,0.07-0.01,0.09c-0.01,0.03-0.01,0.05-0.03,0.07s-0.03,0.04-0.05,0.06c-0.02,0.02-0.08,0.05-0.18,0.1
		s-0.23,0.09-0.39,0.13c-0.16,0.04-0.35,0.08-0.56,0.12c-0.21,0.03-0.44,0.05-0.67,0.05c-0.41,0-0.78-0.06-1.09-0.17
		c-0.31-0.11-0.57-0.28-0.78-0.51c-0.21-0.22-0.37-0.5-0.48-0.84c-0.11-0.34-0.16-0.73-0.16-1.18c0-0.42,0.06-0.81,0.17-1.15
		c0.11-0.34,0.27-0.63,0.48-0.86c0.21-0.24,0.46-0.42,0.76-0.54c0.3-0.13,0.63-0.19,1-0.19c0.39,0,0.73,0.06,1.01,0.19
		c0.28,0.12,0.51,0.29,0.68,0.5c0.18,0.21,0.31,0.46,0.39,0.74c0.08,0.28,0.13,0.59,0.13,0.91V47.9z M193.09,47.63
		c0.01-0.48-0.1-0.85-0.32-1.12c-0.23-0.27-0.56-0.41-1.01-0.41c-0.23,0-0.43,0.04-0.6,0.13c-0.17,0.08-0.32,0.2-0.43,0.34
		c-0.12,0.14-0.21,0.3-0.27,0.49c-0.06,0.19-0.1,0.38-0.11,0.58H193.09z"/>
	<path fill="#020202" d="M199.75,50.59c0,0.03-0.01,0.05-0.02,0.07c-0.02,0.02-0.04,0.04-0.07,0.05c-0.03,0.01-0.08,0.03-0.14,0.03
		c-0.06,0.01-0.13,0.01-0.22,0.01c-0.09,0-0.17,0-0.23-0.01c-0.06-0.01-0.11-0.02-0.14-0.03s-0.06-0.03-0.07-0.05
		c-0.01-0.02-0.02-0.04-0.02-0.07v-2.9c0-0.28-0.02-0.51-0.07-0.68c-0.05-0.17-0.11-0.32-0.2-0.45c-0.09-0.12-0.2-0.22-0.33-0.29
		c-0.14-0.07-0.29-0.1-0.47-0.1c-0.23,0-0.46,0.08-0.69,0.24c-0.23,0.16-0.47,0.4-0.73,0.71v3.46c0,0.03-0.01,0.05-0.02,0.07
		c-0.02,0.02-0.04,0.04-0.07,0.05c-0.03,0.01-0.08,0.03-0.14,0.03c-0.06,0.01-0.14,0.01-0.23,0.01c-0.09,0-0.16,0-0.22-0.01
		c-0.06-0.01-0.11-0.02-0.14-0.03s-0.06-0.03-0.07-0.05c-0.01-0.02-0.02-0.04-0.02-0.07v-4.95c0-0.03,0.01-0.05,0.02-0.07
		c0.01-0.02,0.03-0.04,0.07-0.05c0.03-0.02,0.08-0.03,0.13-0.03c0.05,0,0.12-0.01,0.21-0.01c0.08,0,0.15,0,0.2,0.01
		c0.05,0.01,0.1,0.02,0.13,0.03c0.03,0.02,0.05,0.03,0.06,0.05c0.01,0.02,0.02,0.04,0.02,0.07v0.65c0.28-0.31,0.56-0.54,0.85-0.68
		c0.28-0.14,0.56-0.22,0.85-0.22c0.34,0,0.62,0.06,0.85,0.17c0.23,0.11,0.41,0.26,0.56,0.45c0.14,0.19,0.24,0.41,0.3,0.66
		c0.06,0.25,0.09,0.55,0.09,0.9V50.59z"/>
	<path fill="#020202" d="M203.94,50.23c0,0.11-0.01,0.19-0.02,0.25c-0.02,0.06-0.04,0.11-0.07,0.14c-0.03,0.03-0.07,0.06-0.13,0.08
		c-0.06,0.03-0.13,0.05-0.2,0.06c-0.08,0.02-0.16,0.03-0.24,0.04c-0.09,0.01-0.17,0.02-0.26,0.02c-0.26,0-0.48-0.03-0.67-0.1
		c-0.19-0.07-0.34-0.17-0.46-0.31c-0.12-0.14-0.21-0.31-0.26-0.52c-0.05-0.21-0.08-0.46-0.08-0.74v-2.89h-0.7
		c-0.06,0-0.1-0.03-0.13-0.09s-0.05-0.15-0.05-0.29c0-0.07,0-0.13,0.01-0.18c0.01-0.05,0.02-0.09,0.04-0.12
		c0.01-0.03,0.03-0.05,0.06-0.07c0.02-0.01,0.05-0.02,0.08-0.02h0.7v-1.18c0-0.03,0.01-0.05,0.02-0.07
		c0.01-0.02,0.04-0.04,0.07-0.06c0.04-0.02,0.08-0.03,0.14-0.04c0.06-0.01,0.13-0.01,0.22-0.01c0.09,0,0.17,0,0.23,0.01
		s0.11,0.02,0.14,0.04c0.03,0.02,0.06,0.04,0.07,0.06c0.01,0.02,0.02,0.05,0.02,0.07v1.18h1.29c0.03,0,0.06,0.01,0.08,0.02
		c0.02,0.01,0.04,0.03,0.06,0.07c0.02,0.03,0.03,0.07,0.04,0.12c0.01,0.05,0.01,0.11,0.01,0.18c0,0.13-0.02,0.23-0.05,0.29
		c-0.03,0.06-0.08,0.09-0.13,0.09h-1.29v2.76c0,0.34,0.05,0.6,0.15,0.77c0.1,0.17,0.29,0.26,0.55,0.26c0.09,0,0.16-0.01,0.23-0.02
		c0.07-0.02,0.13-0.03,0.18-0.05c0.05-0.02,0.1-0.04,0.13-0.05c0.04-0.02,0.07-0.02,0.1-0.02c0.02,0,0.04,0,0.05,0.01
		c0.02,0.01,0.03,0.03,0.04,0.05c0.01,0.03,0.02,0.06,0.03,0.11C203.94,50.11,203.94,50.16,203.94,50.23z"/>
	<path fill="#020202" d="M209.96,52.56c0,0.03-0.01,0.05-0.02,0.08c-0.01,0.02-0.04,0.04-0.07,0.05c-0.03,0.01-0.08,0.03-0.13,0.03
		c-0.06,0.01-0.13,0.01-0.21,0.01c-0.08,0-0.15,0-0.21-0.01c-0.06-0.01-0.1-0.02-0.13-0.03s-0.06-0.03-0.07-0.05
		c-0.01-0.02-0.02-0.05-0.02-0.08v-9.54c0-0.02,0.01-0.05,0.02-0.07c0.01-0.02,0.04-0.04,0.07-0.05s0.08-0.03,0.13-0.03
		c0.06-0.01,0.12-0.01,0.21-0.01c0.09,0,0.16,0,0.21,0.01c0.06,0.01,0.1,0.02,0.13,0.03c0.03,0.01,0.06,0.03,0.07,0.05
		c0.01,0.02,0.02,0.05,0.02,0.07V52.56z"/>
	<path fill="#020202" d="M219.89,47.9c0,0.14-0.04,0.24-0.11,0.31s-0.16,0.09-0.25,0.09h-3.31c0,0.27,0.03,0.52,0.08,0.74
		c0.06,0.22,0.15,0.41,0.28,0.57c0.13,0.16,0.3,0.28,0.51,0.36s0.47,0.13,0.77,0.13c0.24,0,0.45-0.02,0.64-0.06
		c0.19-0.04,0.35-0.08,0.49-0.13c0.14-0.05,0.25-0.09,0.34-0.13c0.09-0.04,0.16-0.06,0.2-0.06c0.03,0,0.05,0.01,0.07,0.02
		c0.02,0.01,0.04,0.03,0.05,0.06c0.01,0.03,0.02,0.06,0.03,0.11s0.01,0.1,0.01,0.17c0,0.05,0,0.09-0.01,0.12
		c0,0.03-0.01,0.07-0.01,0.09c-0.01,0.03-0.01,0.05-0.03,0.07s-0.03,0.04-0.05,0.06c-0.02,0.02-0.08,0.05-0.18,0.1
		c-0.1,0.05-0.23,0.09-0.39,0.13c-0.16,0.04-0.35,0.08-0.56,0.12c-0.21,0.03-0.44,0.05-0.67,0.05c-0.41,0-0.78-0.06-1.09-0.17
		c-0.31-0.11-0.57-0.28-0.78-0.51c-0.21-0.22-0.37-0.5-0.48-0.84c-0.11-0.34-0.16-0.73-0.16-1.18c0-0.42,0.06-0.81,0.17-1.15
		c0.11-0.34,0.27-0.63,0.48-0.86c0.21-0.24,0.46-0.42,0.76-0.54c0.3-0.13,0.63-0.19,1-0.19c0.39,0,0.73,0.06,1.01,0.19
		c0.28,0.12,0.51,0.29,0.68,0.5c0.18,0.21,0.31,0.46,0.39,0.74c0.08,0.28,0.13,0.59,0.13,0.91V47.9z M218.96,47.63
		c0.01-0.48-0.1-0.85-0.32-1.12c-0.23-0.27-0.56-0.41-1.01-0.41c-0.23,0-0.43,0.04-0.6,0.13c-0.17,0.08-0.32,0.2-0.43,0.34
		c-0.12,0.14-0.21,0.3-0.27,0.49c-0.06,0.19-0.1,0.38-0.11,0.58H218.96z"/>
	<path fill="#020202" d="M225.28,48.73c0,0.33-0.06,0.63-0.19,0.89c-0.12,0.26-0.3,0.48-0.52,0.66c-0.22,0.18-0.48,0.32-0.78,0.41
		c-0.3,0.09-0.62,0.14-0.97,0.14c-0.24,0-0.47-0.02-0.67-0.06c-0.21-0.04-0.39-0.09-0.55-0.15c-0.16-0.06-0.3-0.12-0.41-0.18
		s-0.19-0.12-0.23-0.16c-0.04-0.04-0.07-0.1-0.09-0.17c-0.02-0.07-0.03-0.16-0.03-0.27c0-0.08,0-0.15,0.01-0.2
		c0.01-0.05,0.02-0.1,0.03-0.13c0.01-0.03,0.03-0.06,0.06-0.07s0.05-0.02,0.08-0.02c0.05,0,0.13,0.03,0.22,0.09
		c0.09,0.06,0.22,0.13,0.37,0.2c0.15,0.07,0.33,0.14,0.54,0.21c0.21,0.06,0.45,0.1,0.73,0.1c0.21,0,0.4-0.03,0.57-0.08
		c0.17-0.06,0.32-0.13,0.45-0.23c0.12-0.1,0.22-0.22,0.29-0.37c0.07-0.15,0.1-0.31,0.1-0.5c0-0.2-0.05-0.37-0.14-0.52
		c-0.09-0.14-0.22-0.27-0.37-0.38c-0.15-0.11-0.33-0.21-0.52-0.3c-0.2-0.09-0.4-0.18-0.6-0.27c-0.21-0.09-0.4-0.2-0.6-0.31
		c-0.19-0.11-0.37-0.25-0.52-0.4c-0.15-0.15-0.28-0.33-0.37-0.54c-0.09-0.21-0.14-0.46-0.14-0.74c0-0.3,0.06-0.56,0.16-0.79
		c0.11-0.23,0.26-0.43,0.46-0.59c0.2-0.16,0.43-0.28,0.7-0.36c0.27-0.08,0.56-0.12,0.88-0.12c0.16,0,0.32,0.01,0.48,0.04
		c0.16,0.03,0.31,0.06,0.46,0.11c0.14,0.05,0.27,0.1,0.38,0.15c0.11,0.06,0.18,0.1,0.22,0.14s0.06,0.06,0.07,0.08
		c0.01,0.02,0.02,0.05,0.03,0.08c0.01,0.03,0.01,0.07,0.02,0.11c0,0.04,0.01,0.1,0.01,0.17c0,0.07,0,0.12-0.01,0.18
		c-0.01,0.05-0.01,0.1-0.02,0.13c-0.01,0.03-0.03,0.06-0.05,0.08c-0.02,0.02-0.04,0.02-0.07,0.02c-0.04,0-0.1-0.03-0.19-0.08
		c-0.09-0.05-0.19-0.11-0.32-0.17c-0.13-0.06-0.28-0.12-0.45-0.18c-0.17-0.05-0.37-0.08-0.58-0.08c-0.2,0-0.38,0.03-0.53,0.08
		c-0.15,0.05-0.27,0.12-0.37,0.21c-0.1,0.09-0.17,0.19-0.22,0.31c-0.05,0.12-0.07,0.25-0.07,0.38c0,0.2,0.05,0.37,0.14,0.51
		c0.09,0.14,0.22,0.27,0.37,0.38c0.15,0.11,0.33,0.21,0.53,0.3c0.2,0.09,0.4,0.18,0.6,0.28c0.2,0.09,0.41,0.2,0.6,0.31
		c0.2,0.11,0.37,0.24,0.53,0.4c0.15,0.15,0.28,0.33,0.37,0.54S225.28,48.45,225.28,48.73z"/>
	<path fill="#020202" d="M229.16,50.23c0,0.11-0.01,0.19-0.02,0.25c-0.02,0.06-0.04,0.11-0.07,0.14c-0.03,0.03-0.07,0.06-0.13,0.08
		c-0.06,0.03-0.13,0.05-0.2,0.06c-0.08,0.02-0.16,0.03-0.24,0.04c-0.09,0.01-0.17,0.02-0.26,0.02c-0.26,0-0.48-0.03-0.67-0.1
		c-0.19-0.07-0.34-0.17-0.46-0.31c-0.12-0.14-0.21-0.31-0.26-0.52c-0.05-0.21-0.08-0.46-0.08-0.74v-2.89h-0.7
		c-0.06,0-0.1-0.03-0.13-0.09s-0.05-0.15-0.05-0.29c0-0.07,0-0.13,0.01-0.18c0.01-0.05,0.02-0.09,0.04-0.12
		c0.01-0.03,0.03-0.05,0.06-0.07c0.02-0.01,0.05-0.02,0.08-0.02h0.7v-1.18c0-0.03,0.01-0.05,0.02-0.07
		c0.01-0.02,0.04-0.04,0.07-0.06c0.04-0.02,0.08-0.03,0.14-0.04c0.06-0.01,0.13-0.01,0.22-0.01c0.09,0,0.17,0,0.23,0.01
		s0.11,0.02,0.14,0.04c0.03,0.02,0.06,0.04,0.07,0.06c0.01,0.02,0.02,0.05,0.02,0.07v1.18h1.29c0.03,0,0.06,0.01,0.08,0.02
		c0.02,0.01,0.04,0.03,0.06,0.07c0.02,0.03,0.03,0.07,0.04,0.12c0.01,0.05,0.01,0.11,0.01,0.18c0,0.13-0.02,0.23-0.05,0.29
		c-0.03,0.06-0.08,0.09-0.13,0.09h-1.29v2.76c0,0.34,0.05,0.6,0.15,0.77c0.1,0.17,0.29,0.26,0.55,0.26c0.09,0,0.16-0.01,0.23-0.02
		c0.07-0.02,0.13-0.03,0.18-0.05c0.05-0.02,0.1-0.04,0.13-0.05c0.04-0.02,0.07-0.02,0.1-0.02c0.02,0,0.04,0,0.05,0.01
		c0.02,0.01,0.03,0.03,0.04,0.05c0.01,0.03,0.02,0.06,0.03,0.11C229.16,50.11,229.16,50.16,229.16,50.23z"/>
	<path fill="#020202" d="M234.03,50.59c0,0.04-0.01,0.08-0.04,0.1s-0.07,0.04-0.12,0.05c-0.05,0.01-0.13,0.02-0.23,0.02
		c-0.1,0-0.17,0-0.23-0.02c-0.06-0.01-0.1-0.03-0.13-0.05c-0.03-0.02-0.04-0.06-0.04-0.1V50.1c-0.22,0.23-0.46,0.41-0.74,0.54
		c-0.27,0.13-0.56,0.19-0.86,0.19c-0.26,0-0.5-0.03-0.72-0.1c-0.21-0.07-0.4-0.17-0.55-0.29c-0.15-0.13-0.27-0.29-0.35-0.47
		c-0.08-0.19-0.13-0.4-0.13-0.64c0-0.28,0.06-0.52,0.17-0.73s0.28-0.38,0.5-0.51c0.22-0.13,0.48-0.24,0.79-0.3
		c0.31-0.07,0.66-0.1,1.06-0.1h0.69V47.3c0-0.19-0.02-0.36-0.06-0.51c-0.04-0.15-0.11-0.27-0.2-0.37c-0.09-0.1-0.21-0.17-0.35-0.22
		c-0.14-0.05-0.32-0.07-0.54-0.07c-0.23,0-0.43,0.03-0.61,0.08c-0.18,0.05-0.34,0.11-0.47,0.18c-0.14,0.06-0.25,0.12-0.34,0.18
		c-0.09,0.05-0.16,0.08-0.2,0.08c-0.03,0-0.06-0.01-0.08-0.02c-0.02-0.01-0.04-0.04-0.06-0.07c-0.02-0.03-0.03-0.07-0.04-0.11
		c-0.01-0.05-0.01-0.1-0.01-0.15c0-0.09,0.01-0.16,0.02-0.22c0.01-0.05,0.05-0.1,0.09-0.15c0.05-0.05,0.14-0.1,0.26-0.17
		c0.12-0.06,0.26-0.12,0.42-0.18c0.16-0.05,0.34-0.1,0.53-0.13c0.19-0.03,0.38-0.05,0.58-0.05c0.36,0,0.67,0.04,0.92,0.12
		c0.25,0.08,0.46,0.2,0.61,0.36c0.16,0.16,0.27,0.35,0.34,0.58c0.07,0.23,0.11,0.5,0.11,0.81V50.59z M233.11,48.34h-0.79
		c-0.25,0-0.47,0.02-0.66,0.06c-0.19,0.04-0.34,0.1-0.46,0.19c-0.12,0.08-0.21,0.18-0.27,0.3c-0.06,0.12-0.09,0.25-0.09,0.4
		c0,0.26,0.08,0.46,0.25,0.61c0.17,0.15,0.4,0.23,0.7,0.23c0.24,0,0.47-0.06,0.67-0.18c0.21-0.12,0.42-0.31,0.65-0.56V48.34z"/>
	<path fill="#020202" d="M243.18,50.59c0,0.03-0.01,0.05-0.02,0.07c-0.01,0.02-0.04,0.04-0.07,0.05s-0.08,0.03-0.14,0.03
		c-0.06,0.01-0.13,0.01-0.22,0.01c-0.09,0-0.17,0-0.23-0.01c-0.06-0.01-0.11-0.02-0.14-0.03s-0.06-0.03-0.08-0.05
		c-0.01-0.02-0.02-0.04-0.02-0.07v-3.01c0-0.21-0.02-0.4-0.06-0.57c-0.04-0.17-0.1-0.32-0.18-0.45c-0.08-0.12-0.19-0.22-0.31-0.29
		c-0.13-0.07-0.28-0.1-0.45-0.1c-0.21,0-0.43,0.08-0.64,0.24c-0.21,0.16-0.45,0.4-0.71,0.71v3.46c0,0.03-0.01,0.05-0.02,0.07
		c-0.02,0.02-0.04,0.04-0.08,0.05s-0.08,0.03-0.14,0.03c-0.06,0.01-0.13,0.01-0.22,0.01c-0.09,0-0.16,0-0.22-0.01
		c-0.06-0.01-0.11-0.02-0.15-0.03c-0.03-0.01-0.06-0.03-0.07-0.05c-0.01-0.02-0.02-0.04-0.02-0.07v-3.01c0-0.21-0.02-0.4-0.06-0.57
		c-0.04-0.17-0.1-0.32-0.18-0.45c-0.08-0.12-0.19-0.22-0.31-0.29c-0.12-0.07-0.27-0.1-0.44-0.1c-0.21,0-0.43,0.08-0.64,0.24
		c-0.22,0.16-0.45,0.4-0.7,0.71v3.46c0,0.03-0.01,0.05-0.02,0.07c-0.02,0.02-0.04,0.04-0.07,0.05c-0.03,0.01-0.08,0.03-0.14,0.03
		c-0.06,0.01-0.14,0.01-0.23,0.01c-0.09,0-0.16,0-0.22-0.01c-0.06-0.01-0.11-0.02-0.14-0.03c-0.04-0.01-0.06-0.03-0.07-0.05
		c-0.01-0.02-0.02-0.04-0.02-0.07v-4.95c0-0.03,0.01-0.05,0.02-0.07c0.01-0.02,0.03-0.04,0.07-0.05c0.03-0.02,0.08-0.03,0.13-0.03
		c0.05,0,0.12-0.01,0.21-0.01c0.08,0,0.15,0,0.2,0.01c0.05,0.01,0.1,0.02,0.13,0.03c0.03,0.02,0.05,0.03,0.06,0.05
		c0.01,0.02,0.02,0.04,0.02,0.07v0.65c0.28-0.31,0.56-0.54,0.82-0.68c0.27-0.14,0.54-0.22,0.81-0.22c0.21,0,0.4,0.02,0.56,0.07
		c0.17,0.05,0.31,0.11,0.44,0.2c0.13,0.09,0.23,0.19,0.32,0.31c0.09,0.12,0.16,0.25,0.22,0.4c0.17-0.18,0.33-0.33,0.48-0.46
		c0.15-0.12,0.3-0.23,0.44-0.3c0.14-0.08,0.28-0.13,0.41-0.17c0.13-0.03,0.27-0.05,0.4-0.05c0.32,0,0.6,0.06,0.82,0.17
		c0.22,0.11,0.4,0.26,0.53,0.45c0.14,0.19,0.23,0.41,0.29,0.66c0.06,0.25,0.09,0.52,0.09,0.79V50.59z"/>
	<path fill="#020202" d="M249.49,48.04c0,0.43-0.05,0.82-0.14,1.16c-0.09,0.34-0.23,0.64-0.42,0.88c-0.18,0.24-0.41,0.43-0.68,0.56
		c-0.27,0.13-0.58,0.19-0.93,0.19c-0.15,0-0.29-0.01-0.41-0.04c-0.13-0.03-0.25-0.08-0.37-0.14c-0.12-0.06-0.24-0.14-0.36-0.24
		c-0.12-0.1-0.25-0.21-0.38-0.34v2.47c0,0.03-0.01,0.05-0.02,0.08c-0.02,0.02-0.04,0.04-0.07,0.05c-0.03,0.01-0.08,0.03-0.14,0.03
		c-0.06,0.01-0.14,0.01-0.23,0.01c-0.09,0-0.16,0-0.22-0.01c-0.06-0.01-0.11-0.02-0.14-0.03c-0.04-0.01-0.06-0.03-0.07-0.05
		c-0.01-0.02-0.02-0.05-0.02-0.08v-6.91c0-0.03,0.01-0.06,0.02-0.08c0.01-0.02,0.03-0.04,0.07-0.05s0.08-0.02,0.13-0.03
		c0.05,0,0.12-0.01,0.19-0.01c0.08,0,0.14,0,0.19,0.01c0.05,0.01,0.09,0.02,0.13,0.03c0.03,0.01,0.06,0.03,0.07,0.05
		c0.01,0.02,0.02,0.05,0.02,0.08v0.66c0.15-0.15,0.3-0.29,0.44-0.4c0.14-0.11,0.28-0.21,0.43-0.28c0.14-0.07,0.29-0.13,0.44-0.17
		c0.15-0.04,0.31-0.06,0.48-0.06c0.37,0,0.68,0.07,0.93,0.21c0.26,0.14,0.47,0.33,0.63,0.57c0.16,0.24,0.28,0.52,0.35,0.84
		C249.45,47.34,249.49,47.68,249.49,48.04z M248.53,48.14c0-0.25-0.02-0.5-0.06-0.73c-0.04-0.24-0.11-0.45-0.2-0.63
		c-0.09-0.18-0.22-0.33-0.38-0.44c-0.16-0.11-0.36-0.17-0.6-0.17c-0.12,0-0.24,0.02-0.35,0.05c-0.12,0.03-0.23,0.09-0.35,0.16
		c-0.12,0.08-0.25,0.17-0.38,0.3c-0.13,0.12-0.27,0.27-0.42,0.45v1.97c0.25,0.3,0.5,0.54,0.73,0.7c0.23,0.16,0.47,0.24,0.72,0.24
		c0.23,0,0.43-0.05,0.6-0.16s0.3-0.26,0.4-0.44c0.1-0.18,0.18-0.39,0.23-0.62C248.51,48.6,248.53,48.38,248.53,48.14z"/>
	<path fill="#020202" d="M258.01,45.7c0,0.36-0.06,0.68-0.18,0.96c-0.12,0.29-0.29,0.53-0.51,0.73c-0.22,0.2-0.49,0.36-0.82,0.47
		c-0.32,0.11-0.71,0.16-1.15,0.16h-0.82v2.56c0,0.03-0.01,0.05-0.02,0.08c-0.02,0.02-0.04,0.04-0.08,0.05
		c-0.04,0.01-0.08,0.02-0.15,0.03c-0.06,0.01-0.14,0.01-0.23,0.01c-0.09,0-0.17,0-0.23-0.01c-0.06-0.01-0.11-0.02-0.15-0.03
		c-0.04-0.01-0.06-0.03-0.08-0.05c-0.02-0.02-0.02-0.05-0.02-0.08v-6.56c0-0.15,0.04-0.25,0.12-0.31c0.08-0.06,0.17-0.09,0.26-0.09
		h1.55c0.16,0,0.31,0.01,0.45,0.02c0.14,0.01,0.31,0.04,0.51,0.08c0.2,0.04,0.39,0.12,0.6,0.24c0.2,0.12,0.37,0.26,0.52,0.43
		c0.14,0.17,0.25,0.36,0.33,0.59C257.97,45.19,258.01,45.43,258.01,45.7z M257,45.78c0-0.29-0.05-0.53-0.16-0.73
		c-0.11-0.19-0.25-0.34-0.41-0.43c-0.16-0.1-0.33-0.16-0.5-0.18c-0.17-0.03-0.34-0.04-0.51-0.04h-0.89v2.85h0.87
		c0.29,0,0.53-0.04,0.72-0.11c0.19-0.07,0.35-0.17,0.48-0.31c0.13-0.13,0.23-0.29,0.3-0.47C256.97,46.19,257,45.99,257,45.78z"/>
	<path fill="#020202" d="M262.91,50.59c0,0.04-0.01,0.08-0.04,0.1c-0.03,0.02-0.07,0.04-0.12,0.05c-0.05,0.01-0.13,0.02-0.23,0.02
		c-0.1,0-0.17,0-0.23-0.02c-0.06-0.01-0.1-0.03-0.13-0.05c-0.03-0.02-0.04-0.06-0.04-0.1V50.1c-0.22,0.23-0.46,0.41-0.74,0.54
		c-0.27,0.13-0.56,0.19-0.86,0.19c-0.26,0-0.5-0.03-0.72-0.1c-0.21-0.07-0.4-0.17-0.55-0.29c-0.15-0.13-0.27-0.29-0.35-0.47
		c-0.08-0.19-0.13-0.4-0.13-0.64c0-0.28,0.06-0.52,0.17-0.73c0.11-0.21,0.28-0.38,0.5-0.51c0.22-0.13,0.48-0.24,0.79-0.3
		c0.31-0.07,0.66-0.1,1.06-0.1H262V47.3c0-0.19-0.02-0.36-0.06-0.51c-0.04-0.15-0.11-0.27-0.2-0.37c-0.09-0.1-0.21-0.17-0.35-0.22
		c-0.14-0.05-0.32-0.07-0.54-0.07c-0.23,0-0.43,0.03-0.61,0.08c-0.18,0.05-0.34,0.11-0.47,0.18c-0.14,0.06-0.25,0.12-0.34,0.18
		c-0.09,0.05-0.16,0.08-0.2,0.08c-0.03,0-0.06-0.01-0.08-0.02c-0.02-0.01-0.04-0.04-0.06-0.07c-0.02-0.03-0.03-0.07-0.04-0.11
		c-0.01-0.05-0.01-0.1-0.01-0.15c0-0.09,0.01-0.16,0.02-0.22c0.01-0.05,0.05-0.1,0.09-0.15c0.05-0.05,0.14-0.1,0.26-0.17
		c0.12-0.06,0.26-0.12,0.42-0.18c0.16-0.05,0.34-0.1,0.53-0.13c0.19-0.03,0.38-0.05,0.58-0.05c0.36,0,0.67,0.04,0.92,0.12
		c0.25,0.08,0.46,0.2,0.61,0.36c0.16,0.16,0.27,0.35,0.34,0.58c0.07,0.23,0.11,0.5,0.11,0.81V50.59z M262,48.34h-0.79
		c-0.25,0-0.47,0.02-0.66,0.06c-0.19,0.04-0.34,0.1-0.46,0.19c-0.12,0.08-0.21,0.18-0.27,0.3c-0.06,0.12-0.09,0.25-0.09,0.4
		c0,0.26,0.08,0.46,0.25,0.61c0.17,0.15,0.4,0.23,0.7,0.23c0.24,0,0.47-0.06,0.67-0.18c0.21-0.12,0.42-0.31,0.65-0.56V48.34z"/>
	<path fill="#020202" d="M269.23,48.04c0,0.43-0.05,0.82-0.14,1.16c-0.09,0.34-0.23,0.64-0.42,0.88c-0.18,0.24-0.41,0.43-0.68,0.56
		c-0.27,0.13-0.58,0.19-0.93,0.19c-0.15,0-0.29-0.01-0.41-0.04c-0.13-0.03-0.25-0.08-0.37-0.14c-0.12-0.06-0.24-0.14-0.36-0.24
		c-0.12-0.1-0.25-0.21-0.38-0.34v2.47c0,0.03-0.01,0.05-0.02,0.08c-0.02,0.02-0.04,0.04-0.07,0.05c-0.03,0.01-0.08,0.03-0.14,0.03
		c-0.06,0.01-0.14,0.01-0.23,0.01c-0.09,0-0.16,0-0.22-0.01c-0.06-0.01-0.11-0.02-0.14-0.03c-0.04-0.01-0.06-0.03-0.07-0.05
		c-0.01-0.02-0.02-0.05-0.02-0.08v-6.91c0-0.03,0.01-0.06,0.02-0.08c0.01-0.02,0.03-0.04,0.07-0.05c0.03-0.01,0.08-0.02,0.13-0.03
		c0.05,0,0.12-0.01,0.19-0.01c0.08,0,0.14,0,0.19,0.01c0.05,0.01,0.09,0.02,0.13,0.03s0.06,0.03,0.07,0.05
		c0.01,0.02,0.02,0.05,0.02,0.08v0.66c0.15-0.15,0.3-0.29,0.44-0.4c0.14-0.11,0.28-0.21,0.43-0.28c0.14-0.07,0.29-0.13,0.44-0.17
		c0.15-0.04,0.31-0.06,0.48-0.06c0.37,0,0.68,0.07,0.93,0.21c0.26,0.14,0.47,0.33,0.63,0.57c0.16,0.24,0.28,0.52,0.35,0.84
		C269.2,47.34,269.23,47.68,269.23,48.04z M268.28,48.14c0-0.25-0.02-0.5-0.06-0.73c-0.04-0.24-0.11-0.45-0.2-0.63
		c-0.09-0.18-0.22-0.33-0.38-0.44c-0.16-0.11-0.36-0.17-0.6-0.17c-0.12,0-0.24,0.02-0.35,0.05c-0.12,0.03-0.23,0.09-0.35,0.16
		c-0.12,0.08-0.25,0.17-0.38,0.3c-0.13,0.12-0.27,0.27-0.42,0.45v1.97c0.25,0.3,0.5,0.54,0.73,0.7c0.23,0.16,0.47,0.24,0.72,0.24
		c0.23,0,0.43-0.05,0.6-0.16c0.17-0.11,0.3-0.26,0.4-0.44c0.1-0.18,0.18-0.39,0.23-0.62C268.25,48.6,268.28,48.38,268.28,48.14z"/>
	<path fill="#020202" d="M274.91,47.9c0,0.14-0.04,0.24-0.11,0.31c-0.07,0.06-0.16,0.09-0.25,0.09h-3.31c0,0.27,0.03,0.52,0.08,0.74
		c0.06,0.22,0.15,0.41,0.28,0.57c0.13,0.16,0.3,0.28,0.51,0.36c0.21,0.08,0.47,0.13,0.77,0.13c0.24,0,0.45-0.02,0.64-0.06
		c0.19-0.04,0.35-0.08,0.49-0.13c0.14-0.05,0.25-0.09,0.34-0.13c0.09-0.04,0.16-0.06,0.2-0.06c0.03,0,0.05,0.01,0.07,0.02
		c0.02,0.01,0.04,0.03,0.05,0.06c0.01,0.03,0.02,0.06,0.03,0.11c0.01,0.05,0.01,0.1,0.01,0.17c0,0.05,0,0.09-0.01,0.12
		c0,0.03-0.01,0.07-0.01,0.09c-0.01,0.03-0.01,0.05-0.03,0.07c-0.01,0.02-0.03,0.04-0.05,0.06c-0.02,0.02-0.08,0.05-0.18,0.1
		s-0.23,0.09-0.39,0.13c-0.16,0.04-0.35,0.08-0.56,0.12c-0.21,0.03-0.44,0.05-0.67,0.05c-0.41,0-0.78-0.06-1.09-0.17
		c-0.31-0.11-0.57-0.28-0.78-0.51c-0.21-0.22-0.37-0.5-0.48-0.84c-0.11-0.34-0.16-0.73-0.16-1.18c0-0.42,0.06-0.81,0.17-1.15
		c0.11-0.34,0.27-0.63,0.48-0.86c0.21-0.24,0.46-0.42,0.76-0.54c0.3-0.13,0.63-0.19,1-0.19c0.39,0,0.73,0.06,1.01,0.19
		c0.28,0.12,0.51,0.29,0.68,0.5c0.18,0.21,0.31,0.46,0.39,0.74c0.08,0.28,0.13,0.59,0.13,0.91V47.9z M273.98,47.63
		c0.01-0.48-0.1-0.85-0.32-1.12c-0.23-0.27-0.56-0.41-1.01-0.41c-0.23,0-0.43,0.04-0.6,0.13s-0.32,0.2-0.43,0.34
		c-0.12,0.14-0.21,0.3-0.27,0.49c-0.06,0.19-0.1,0.38-0.11,0.58H273.98z"/>
	<path fill="#020202" d="M279.25,45.97c0,0.08,0,0.15,0,0.2c0,0.05-0.01,0.1-0.02,0.13c-0.01,0.03-0.02,0.05-0.04,0.07
		c-0.02,0.02-0.04,0.02-0.07,0.02c-0.03,0-0.07-0.01-0.11-0.02s-0.09-0.03-0.15-0.05c-0.05-0.02-0.11-0.03-0.18-0.05
		c-0.07-0.01-0.14-0.02-0.22-0.02c-0.09,0-0.18,0.02-0.27,0.05s-0.18,0.1-0.28,0.18c-0.1,0.08-0.2,0.2-0.31,0.34
		c-0.11,0.14-0.23,0.31-0.36,0.51v3.25c0,0.03-0.01,0.05-0.02,0.07c-0.02,0.02-0.04,0.04-0.07,0.05c-0.03,0.01-0.08,0.03-0.14,0.03
		c-0.06,0.01-0.14,0.01-0.23,0.01c-0.09,0-0.16,0-0.22-0.01c-0.06-0.01-0.11-0.02-0.14-0.03s-0.06-0.03-0.07-0.05
		c-0.01-0.02-0.02-0.04-0.02-0.07v-4.95c0-0.03,0.01-0.05,0.02-0.07c0.01-0.02,0.03-0.04,0.07-0.05c0.03-0.02,0.08-0.03,0.13-0.03
		c0.05,0,0.12-0.01,0.21-0.01c0.08,0,0.15,0,0.2,0.01c0.05,0.01,0.1,0.02,0.13,0.03c0.03,0.02,0.05,0.03,0.06,0.05
		c0.01,0.02,0.02,0.04,0.02,0.07v0.72c0.14-0.2,0.27-0.36,0.39-0.48c0.12-0.12,0.23-0.22,0.34-0.29c0.11-0.07,0.22-0.12,0.32-0.15
		c0.11-0.03,0.21-0.04,0.32-0.04c0.05,0,0.1,0,0.16,0.01c0.06,0,0.13,0.02,0.19,0.03c0.07,0.01,0.13,0.03,0.18,0.05
		c0.05,0.02,0.09,0.04,0.11,0.06c0.02,0.02,0.04,0.04,0.04,0.05c0.01,0.02,0.01,0.04,0.02,0.06c0.01,0.03,0.01,0.06,0.01,0.11
		C279.25,45.82,279.25,45.88,279.25,45.97z"/>
</g>
<path fill="#FF0025" d="M209.76,52.75h-0.48c-0.13,0-0.24-0.11-0.24-0.24v-9.42c0-0.13,0.11-0.24,0.24-0.24h0.48
	c0.13,0,0.24,0.11,0.24,0.24v9.42C210.01,52.64,209.9,52.75,209.76,52.75z"/>
</svg>
